<svg id="Camada_1" data-name="Camada 1" xmlns="http://www.w3.org/2000/svg" viewBox="0 0 793.81 985"><defs><style>.cls-1{fill:#dbdbdb;}.cls-2{fill:#6b6b6b;}.cls-3{fill:#f2f2f2;}.cls-4{fill:#dfdfdf;}.cls-5{fill:#e5e5e5;}.cls-6{fill:#f4f4f4;}.cls-7{fill:#cdcecc;}.cls-8{fill:#375b24;}.cls-9{fill:#cacaca;}.cls-10{fill:#a9a9a9;}.cls-11{fill:#555;}.cls-12{fill:red;}</style></defs><path class="cls-1" d="M819.72,480.88s.24,18.77,1,25.83,6.09,15.36,36.8,14.87,71.4-13.89,80.67-18,10.24-6.1,8.16-19.26A269.38,269.38,0,0,1,943.76,456C927.68,468.94,859,491.6,819.72,480.88Z" transform="translate(-154.32 -43)"/><path class="cls-2" d="M855,522.51c-22.88,0-34.06-5-35.17-15.7-.72-7-1-25.15-1-25.92v-1.21L820,480a90.17,90.17,0,0,0,23.61,2.77c37.33,0,86.17-16.66,99.62-27.46l1.42-1.14.06,1.82a271.31,271.31,0,0,0,2.55,28.16c2.12,13.41,1.06,15.86-8.69,20.23-8.26,3.69-49.51,17.61-81,18.11Zm-34.31-40.44c.07,4.24.34,18.63,1,24.55.64,6.21,5,14.54,35.87,14,31.24-.5,72.13-14.29,80.31-18,8.6-3.84,9.7-5.25,7.65-18.27a262.51,262.51,0,0,1-2.51-26.64c-15.58,11.17-62.22,26.79-99.35,26.79A94.51,94.51,0,0,1,820.64,482.07Z" transform="translate(-154.32 -43)"/><path class="cls-3" d="M938.39,473.09c-9,3.4-44.59,13.89-88,16.81-17.55,1.22-34,6-35.34-20.1a149.22,149.22,0,0,0-3.51-24.61,75.75,75.75,0,0,0-2.48-8.38,31.61,31.61,0,0,1-4-3.55c-4.34-4.58-5.57-8.7-9.51-10.62-5.7-2.78,8.16-98.22,18.4-123.81s34-98.58,50.65-113.62A81.93,81.93,0,0,0,880,201.48c10.23,8.41,21.07,18.4,34.48,46.91s15.1,49.47,17.06,64.82c.73,5.76,2,15.44,3.36,25.91,2.31,17.43,5,37.07,6.38,44.52.26,1.39.48,3.24.67,5.41,1.49,16.42,1.52,51.94,3.23,59.91C947.17,458,947.42,469.67,938.39,473.09Z" transform="translate(-154.32 -43)"/><path class="cls-4" d="M921.46,427.88c5.12-13.16,8.78-34,9.51-46.43a238.78,238.78,0,0,1-31.79,16.8c.57-.64,19.11-21.36,26.67-32.52,4.62-7.22,7.49-13,9.09-26.61,2.31,17.43,5,37.07,6.38,44.52.26,1.39.48,3.24.67,5.41C936,400.71,929.69,416.06,921.46,427.88Z" transform="translate(-154.32 -43)"/><path class="cls-4" d="M864.8,414.35c-19,11.33-33.63,15.72-40.94,20.47a90,90,0,0,0-12.28,10.37,75.75,75.75,0,0,0-2.48-8.38,31.61,31.61,0,0,1-4-3.55c2.76-6.63,8.6-17.43,19.49-25.49-8.77,15.35-8.77,20.11-8.77,20.11C822.4,426.41,849.45,423.12,864.8,414.35Z" transform="translate(-154.32 -43)"/><path class="cls-2" d="M834.5,491.94c-10,0-19.32-2.68-20.33-22.1a147.52,147.52,0,0,0-3.48-24.44,76.64,76.64,0,0,0-2.35-8,30.76,30.76,0,0,1-3.9-3.49,43.73,43.73,0,0,1-4.14-5.21c-1.64-2.32-2.94-4.15-5.1-5.21-6.9-3.36,8.59-101.58,17.94-125,2.2-5.49,5-13.13,8.26-22,11.71-31.86,29.42-80,42.63-92l.79-.71.58.89a82.08,82.08,0,0,0,15.22,16.07c10.74,8.83,21.49,19.08,34.72,47.22,12.39,26.34,14.86,46.52,16.67,61.26.16,1.32.31,2.59.47,3.83.74,5.76,2,15.44,3.37,25.91,3.11,23.47,5.25,38.43,6.36,44.48.26,1.35.48,3.15.69,5.5.67,7.35,1,18.51,1.4,29.31.46,13.45.88,26.15,1.81,30.48,1.67,7.72,2.93,21.26-7.39,25.17-9.12,3.45-44.9,13.95-88.23,16.87-1.92.13-3.84.31-5.71.48C841.16,491.63,837.74,491.94,834.5,491.94Zm30-305.34c-12.81,12.8-30,59.47-41.39,90.55-3.26,8.86-6.07,16.52-8.27,22C804.51,325,791.6,418,796,421.84c2.55,1.24,4,3.35,5.76,5.78a43.34,43.34,0,0,0,4,5,29.07,29.07,0,0,0,3.89,3.45l.22.16.09.26a78.45,78.45,0,0,1,2.5,8.48A148.79,148.79,0,0,1,816,469.74c.88,16.91,8,20.38,18.51,20.38,3.16,0,6.54-.31,10.11-.64,1.89-.17,3.82-.35,5.75-.49,43.12-2.9,78.66-13.33,87.71-16.75s7.81-15.94,6.26-23.09c-1-4.49-1.39-17.27-1.85-30.8-.36-10.77-.73-21.91-1.4-29.21-.2-2.29-.41-4-.66-5.33-1.12-6.08-3.26-21.07-6.38-44.57-1.39-10.47-2.63-20.15-3.36-25.92q-.24-1.86-.48-3.84c-1.79-14.61-4.25-34.63-16.51-60.7-13.07-27.8-23.65-37.9-34.23-46.6A86.27,86.27,0,0,1,864.5,186.6Z" transform="translate(-154.32 -43)"/><path class="cls-5" d="M158.06,476.49s-3.8,26.17-2.58,37.75c.12,3.78,17.94,16.36,50.35,24.4s58.61,3.65,62.39,0,4.75-11.19,10.11-28.81C265.9,511.47,197.66,502.81,158.06,476.49Z" transform="translate(-154.32 -43)"/><path class="cls-2" d="M241.78,544.08a152.73,152.73,0,0,1-36.17-4.56c-30.44-7.55-50.88-20.2-51-25.25-1.21-11.49,2.44-36.83,2.59-37.91l.21-1.42,1.2.8c35.77,23.77,96.58,33.37,115.92,33.37a30.42,30.42,0,0,0,3.72-.18l1.4-.19-.41,1.36c-1.54,5.08-2.75,9.41-3.72,12.88-2.51,9-3.77,13.54-6.63,16.31C266.39,541.67,256.3,544.08,241.78,544.08Zm-83-66c-.77,5.59-3.42,26.3-2.39,36.09.09,2.7,15.74,15.2,49.67,23.61a150.66,150.66,0,0,0,35.73,4.51c14.75,0,24-2.5,25.8-4.28,2.51-2.42,3.73-6.79,6.15-15.49.89-3.18,2-7.08,3.34-11.63-.75.05-1.62.07-2.58.07C257.69,510.93,197.05,502.81,158.77,478.05Z" transform="translate(-154.32 -43)"/><path class="cls-6" d="M310.45,429.53s-1.29,10.78-13.9,24.12a20.22,20.22,0,0,0-2.17,6.32c-1.26,5.5-2.45,13.61-5,23.47a121,121,0,0,1-3.76,11.95h0c-3.48,9.35-7.3,16.58-8.49,19.85-1.27,2.56-9.12,4-29.41,1.83s-63.86-9.39-87.74-30.82c-5.6-4.89-6-11.34-1.34-26.09s13.77-90.16,15-110.88c.16-2.63.32-5.47.49-8.45.5-8.92,1.13-19.15,2.11-29.13,1.27-13.05,3.16-25.61,6.17-34.07,6.1-17.06,9.87-36.44,30-59.83,9.87-12.43,16.22-19.74,22.3-21.2s16-5.95,20.42-8.16C266,198.19,318.91,356.84,310.45,429.53Z" transform="translate(-154.32 -43)"/><path class="cls-4" d="M294.38,460c-1.26,5.5-2.45,13.61-5,23.47a121,121,0,0,1-3.76,11.95h0c-7.34,2.44-16.28,6.77-25,9.6.63-.55,21-18.57,22.17-21.92a51.45,51.45,0,0,1-15.81-4s14.26.92,20.65-8c-7.13-2.19-18.25.62-28.72.37,0,0,9.74-2.68,19.37-5.37A87.68,87.68,0,0,0,294.38,460Z" transform="translate(-154.32 -43)"/><path class="cls-4" d="M190.16,346.72c-7.6-2.57-11.26-5-16-5.89.5-8.92,1.13-19.15,2.11-29.13,5.76,9,18,26.73,31.27,37.58-10.6-5.12-26.31-17.91-26.31-17.91A49.81,49.81,0,0,0,190.16,346.72Z" transform="translate(-154.32 -43)"/><path class="cls-2" d="M264.39,519.05A161.68,161.68,0,0,1,247.65,518c-18.34-2-63.66-9-88.25-31.05-5.91-5.16-6.32-12-1.6-27,4.5-14.33,13.73-89.89,14.95-110.66l.49-8.45c.49-8.8,1.13-19.15,2.11-29.17,1.52-15.59,3.56-26.8,6.22-34.28,1-2.9,2-5.81,3-8.9,4.84-14.85,10.34-31.67,27.14-51.22,9.49-12,16.21-19.92,22.78-21.5,5.83-1.4,15.49-5.7,20.21-8.08l.56-.29.46.42c11.42,10.21,64.12,169,55.63,241.87-.05.46-1.47,11.24-14.13,24.65a19.84,19.84,0,0,0-2,5.89c-.46,2-.9,4.31-1.41,7-.87,4.56-1.95,10.23-3.56,16.52a122.58,122.58,0,0,1-3.78,12l-.24.6c-2.09,5.53-4.29,10.34-5.92,13.88-1.06,2.32-1.89,4.15-2.34,5.37C276.84,517.94,272.4,519.05,264.39,519.05Zm-9.46-329.5c-5,2.46-14.27,6.56-20,7.93-6,1.44-12.53,9.21-21.8,20.89-16.59,19.3-22,35.94-26.82,50.62-1,3.11-2,6-3,8.95-2.62,7.34-4.62,18.41-6.12,33.85-1,10-1.62,20.31-2.11,29.09l-.5,8.46c-1.25,21.39-10.37,96.3-15,111.1-4.51,14.38-4.25,20.48,1.07,25.12,24.21,21.73,69.07,28.64,87.23,30.61a161,161,0,0,0,16.55,1.06c10,0,11.68-1.83,12-2.39.43-1.2,1.28-3.06,2.36-5.41,1.67-3.65,4-8.64,6.08-14.36l.23-.6a116.61,116.61,0,0,0,3.52-11.25c1.59-6.24,2.66-11.88,3.53-16.41.51-2.69,1-5,1.42-7,.72-3.26,1.43-5.3,2.31-6.62,12.31-13.06,13.73-23.63,13.74-23.73,4.86-41.7-10.68-108-20.37-143.8C276.11,237.4,260.63,196,254.93,189.55Z" transform="translate(-154.32 -43)"/><path class="cls-7" d="M827.51,286.77c-9.5,27.05-21.2,98.09-24.37,119.29-2.34,15.66-8.66,61-14.17,93.2-1.94,11.42-3.79,21.19-5.32,27.43-1.46,5.95-2.84,11.63-4.15,17.08-4,16.42-7.3,30.74-10.23,44.1a310.52,310.52,0,0,0-5.71,45.91c-.21,5.43,0,9.52.6,11.12,2.19,5.35-4.64,26.55-4.89,36.06,0,.52,0,1-.06,1.56-.33,8.67-1.57,15-.67,26.47,2,6.74,4.86,27.43,7.12,47.09,2,17.3,3.48,33.84,3.37,39.43.48,5.11,2.92,7.79,2.67,23.87,1.17,4.48,2.58,9,3.64,13.78a57.59,57.59,0,0,1,.75,24.24c2.35,30.05,4,79.59,4.52,104.86.1,6.08.14,10.74.11,13.41-.17,13.7-3.65,15.52-10.23,18.93s-32.54,14.51-70.19,22.18-110,9.14-166.33,10.24-125.75-10.6-161.2-16.45S322,985.71,319.39,979.5c-1.72-4.19-2.12-12-1.52-22.48.28-5.09.81-10.79,1.52-17,2.2-19,11.7-135.74,14.63-157.92s6.83-55,4.5-63.61a29.73,29.73,0,0,1-.79-8.54c.23-7.18,2.28-14.63,4.08-17.6,2.56-4.2.29-6.35-.12-8-3-9.13-2.31-21.57-.2-26.82,0,0,0,0,0,0a7.16,7.16,0,0,1,.81-1.55c1.33-6.46.85-24.67-1.35-36.55-2.1-11.44-12-48.86-16-68.45-.17-.79-.31-1.55-.46-2.28-1.5-7.75-4.25-19-6.94-31.25-3.82-17.49-7.53-37-7.31-51.19-1.1-35.46-4.76-50.45-10.6-79.69s-43.51-159.38-49.72-174-4.75-19.38,0-21.57,54.83-27.78,88.46-45.33,77.87-43.87,77.87-43.87,246.5-4.5,257.71,2.81c40.7,25.09,100.16,46.54,129.41,55.31S862.24,179.3,865.9,187C871,205.25,837,259.72,827.51,286.77Z" transform="translate(-154.32 -43)"/><path class="cls-4" d="M438.93,563.76c-1.46,7.94-40.58,72.48-55.56,93.32-11,15.23-34,40.41-45.64,52.87.23-7.18,2.28-14.63,4.08-17.6,2.56-4.2.29-6.35-.12-8-3-9.13-2.31-21.57-.2-26.82,0,0,0,0,0,0,5.79-8,11.61-17.59,14.45-22.38a152.16,152.16,0,0,1,24.49-30C390.31,596,413,558,437.09,513.09c-.62,1.77-20.43,58.52-41.66,86.23-21.57,28.15-44.23,71.28-44.6,75.67s-.73,4.75,18.64-13.53S420.29,590.18,438.93,563.76Z" transform="translate(-154.32 -43)"/><path class="cls-4" d="M368.8,500.68c-1.08,1.3-18.7,22.14-26.26,30.4-5.12,5.61-12.87,14.47-17.57,19.9-.17-.79-.31-1.55-.46-2.28-1.5-7.75-4.25-19-6.94-31.25,5.06-2.79,10.63-7.57,15.72-13.17,7.31-8,21.45-27.3,30.45-34.85-3.65,7.06-31.43,45.08-34.36,50.68s-3.89,17.32,2.19,12.93S356.62,511.89,368.8,500.68Z" transform="translate(-154.32 -43)"/><path class="cls-4" d="M759.27,681c0,.52,0,1-.06,1.56-4.06-7.11-11.59-20.32-15-26.9,5.6,5.11,11.21,9.5,12.18,11.45s1-15.11,1-20-19.74-39-21-45.33c9.07,14.61,19,26,27.18,32-.21,5.43,0,9.52.6,11.12C766.35,650.25,759.52,671.45,759.27,681Z" transform="translate(-154.32 -43)"/><path class="cls-4" d="M789,499.26c-1.94,11.42-3.79,21.19-5.32,27.43-1.46,5.95-2.84,11.63-4.15,17.08-1.89-7.3-4.29-16.45-5.84-22.17-2.88-10.58-22.55-43.34-23.16-44.35,14.87,19.48,21.7,30.84,25.59,32.95s4.88-13.48,3.9-14.95-2.44-10.71-2.44-10.71C781.78,490.44,785.62,495.31,789,499.26Z" transform="translate(-154.32 -43)"/><path class="cls-4" d="M775.34,833.16c-5.19,6.67-12.12,13.88-20.59,18.2,8.49-5.12,10.61-37.91,9.84-44.41s-.68-19-10.19-16.81c-13.64,11-27,21.93-55.56,27.05,14.62-5.85,30.71-17.55,37.54-22.66,4.6-3.46,19.85-24.88,29.28-38.45,2,17.3,3.48,33.84,3.37,39.43.48,5.11,2.92,7.79,2.67,23.87C772.87,823.86,774.28,828.38,775.34,833.16Z" transform="translate(-154.32 -43)"/><path class="cls-2" d="M526.43,1028c-53.68,0-117.3-10.5-151.48-16.15l-2.33-.38c-35.95-5.93-51.46-25.31-54.07-31.63-1.71-4.14-2.23-11.63-1.58-22.87.26-4.89.76-10.47,1.52-17.06.93-8,3.12-33.07,5.66-62.06,3.41-38.94,7.27-83.06,9-95.87,1.76-13.29,7.09-53.73,4.53-63.25a30.6,30.6,0,0,1-.82-8.81c.24-7.34,2.33-14.94,4.21-18,1.75-2.87,1-4.51.3-6a7.84,7.84,0,0,1-.52-1.32c-2.95-8.83-2.49-21.37-.23-27.21v-.74h.31a7.46,7.46,0,0,1,.56-1c1.22-6.31.84-24-1.38-36-1-5.51-3.91-17.32-7-29.84-3.26-13.34-7-28.46-9-38.59l-.45-2.28c-.92-4.71-2.27-10.63-3.84-17.48-1-4.33-2-9-3.1-13.75-3.54-16.19-7.56-36.67-7.33-51.4-1-32-4-46.95-9-71.66l-1.58-7.84C293,357.94,255.21,227.28,249.1,212.92c-5.76-13.56-5.63-19.94.46-22.75,4.65-2.15,54.05-27.37,88.42-45.31,33.23-17.33,77.38-43.58,77.82-43.84l.21-.12h.24c.75,0,75.9-1.37,144.3-1.37,107.29,0,112.29,3.26,113.93,4.33,41,25.29,100.5,46.6,129.17,55.2,38.67,11.6,59.9,20.87,63.07,27.54,3.52,12.52-9.79,39.65-22.65,65.89-6.42,13.08-12.48,25.42-15.7,34.59-9.29,26.47-20.71,95-24.33,119.12-.53,3.53-1.26,8.56-2.13,14.61-3.09,21.36-7.77,53.64-12,78.62-2.13,12.5-3.93,21.75-5.34,27.49-1.46,6-2.83,11.62-4.15,17.07-4.18,17.33-7.43,31.34-10.22,44.09a309.87,309.87,0,0,0-5.69,45.75c-.28,7.49.21,9.94.53,10.74,1.38,3.35-.36,11.66-2.2,20.45-1.23,5.93-2.52,12.06-2.62,16,0,.6,0,1.1-.06,1.59-.1,2.6-.28,5-.46,7.37a109.76,109.76,0,0,0-.22,18.89c2.1,7.34,5,29.14,7.13,47.15,2.15,18.77,3.48,34.29,3.37,39.55a27.81,27.81,0,0,0,.81,4.13c.86,3.52,2,8.33,1.86,19.61.4,1.53.83,3.06,1.26,4.61.82,2.93,1.66,6,2.36,9.08a58.48,58.48,0,0,1,.78,24.49c2.41,30.95,4,80.68,4.51,104.79.1,6.31.14,10.83.11,13.44-.18,14.27-4.15,16.32-10.72,19.73-7,3.62-33.18,14.67-70.43,22.27-38,7.75-112.27,9.19-166.49,10.25C531.5,1028,529,1028,526.43,1028ZM342.24,658.14c-1.87,5-2.65,17.05.32,26a5.48,5.48,0,0,0,.42,1c.74,1.59,1.86,4-.39,7.68-1.72,2.84-3.72,10.21-3.95,17.16a28.71,28.71,0,0,0,.76,8.28c1.79,6.64.32,27.56-4.48,64-1.68,12.77-5.55,56.87-9,95.79-2.54,29-4.73,54-5.66,62.11-.76,6.55-1.25,12.1-1.51,17-.63,10.82-.14,18.24,1.45,22.08,2.5,6.08,17.55,24.73,52.67,30.52l2.34.38C411,1016,479,1027.17,534,1026.11c54.14-1.06,128.3-2.5,166.16-10.22,37-7.55,63-18.51,70-22.1,6.37-3.3,9.57-5,9.74-18.14,0-2.58,0-7.09-.11-13.38-.46-24.11-2.1-73.89-4.52-104.8v-.12l0-.12a56.7,56.7,0,0,0-.74-23.87c-.68-3.08-1.52-6.08-2.33-9-.45-1.6-.89-3.18-1.3-4.75l0-.13v-.12c.17-11.15-1-15.84-1.81-19.27a30.15,30.15,0,0,1-.86-4.51c.1-5.29-1.22-20.71-3.36-39.4-2-17.18-5-39.79-7.09-47l0-.18a112.61,112.61,0,0,1,.21-19.26c.18-2.33.36-4.74.46-7.31,0-.5.05-1,.06-1.47.11-4.16,1.41-10.37,2.66-16.38,1.62-7.76,3.46-16.55,2.29-19.4-.66-1.65-.89-5.51-.66-11.49a311.52,311.52,0,0,1,5.73-46.07c2.8-12.76,6-26.78,10.23-44.12,1.32-5.46,2.69-11.13,4.15-17.09,1.4-5.69,3.19-14.9,5.31-27.36,4.27-25,8.94-57.22,12-78.57.87-6.05,1.6-11.09,2.13-14.62,3.62-24.2,15.07-92.85,24.41-119.45,3.26-9.27,9.34-21.67,15.78-34.79C854.56,227,868.3,198.94,865,187.22c-2.81-5.86-24.81-15.3-61.89-26.42-28.76-8.63-88.42-30-129.63-55.41-2.84-1.86-24.72-4-113-4-66.44,0-139.27,1.28-144,1.37-3.34,2-45.6,27-77.69,43.77-34.4,17.94-83.84,43.19-88.51,45.34-3.32,1.54-6.29,4.5.46,20.39,6.12,14.4,44,145.32,49.77,174.18l1.58,7.84c5,24.8,8,39.77,9,72-.23,14.59,3.77,34.93,7.29,51,1.05,4.78,2.11,9.41,3.1,13.74,1.57,6.86,2.93,12.79,3.85,17.53l.45,2.27c2.06,10.09,5.75,25.19,9,38.52,3.07,12.54,6,24.38,7,29.94,2.27,12.33,2.64,30.6,1.34,36.9l-.16.36a6.39,6.39,0,0,0-.69,1.35Z" transform="translate(-154.32 -43)"/><path class="cls-8" d="M642.91,110.21c-15.72-5.85-53.37-7.14-98-7.31s-76.22-4.21-102,4.39c0,0,.92-5.93,2.44-14.16,2.64-14.11,7.08-35,11.82-44.33,2.92-4.57,5.6-5,10.23-4.87,7.31.36,79.15,2.5,106.38,1.39s50.27-2.65,53.55.27,9.69,21.12,12.07,27c1.22,3,2.09,12.75,2.66,21.58C642.65,102.59,642.91,110.21,642.91,110.21Z" transform="translate(-154.32 -43)"/><path class="cls-8" d="M643.87,111.54l-1.28-.48c-16.44-6.12-58.59-7.1-97.65-7.25-11.29,0-21.56-.33-31.49-.61-9.05-.25-17.6-.49-25.54-.49-14,0-30.31.65-44.67,5.44l-1.42.47.23-1.47c0-.06.94-6,2.45-14.18,2.84-15.24,7.21-35.35,11.9-44.58,3.18-5,6.18-5.5,11.07-5.37,5.37.26,52.52,1.7,85.17,1.7,8.88,0,16-.1,21.14-.31l12.28-.52c10.88-.48,20.27-.88,27.54-.88,8.58,0,12.87.57,14.37,1.91,2.58,2.27,6.39,11.88,10.4,22.37.77,2,1.43,3.72,1.92,4.92,1,2.55,2,9.91,2.72,21.87.54,8.37.81,16,.81,16.1Zm-156-10.65c8,0,16.53.24,25.59.49,9.92.28,20.18.56,31.45.61,40.17.16,79.61,1.12,97,6.92-.1-2.56-.35-8.43-.75-14.71-1-14.66-1.94-19.67-2.6-21.3-.49-1.21-1.15-2.94-1.93-5-2.79-7.29-7.45-19.49-9.91-21.66-.74-.67-3.62-1.45-13.16-1.45-7.23,0-16.6.41-27.46.88l-12.28.52c-5.17.21-12.31.32-21.22.32-32.68,0-79.89-1.44-85.24-1.71l-1.16,0c-3.73,0-5.81.64-8.27,4.47-4.54,9-8.86,28.89-11.68,44-1.06,5.75-1.84,10.41-2.2,12.66C458.33,101.51,474.19,100.89,487.91,100.89Z" transform="translate(-154.32 -43)"/><path class="cls-9" d="M538.73,276.17s-13.4-76.89-37.89-87.12c-16.95-22.18-55.21-29.13-57.89-44.24s-4.63-40.95-4.38-45.08,56.29-5.6,73.84-4.87,110.87,3.24,118.44,4.87,16.57,6.09,20.22,11.94-8,56.54-23.39,65.07C600.14,177.37,560.42,220.36,538.73,276.17Z" transform="translate(-154.32 -43)"/><path class="cls-2" d="M538.39,279.55l-.56-3.22c-.13-.77-13.59-76.52-37.34-86.44l-.23-.1-.14-.19c-8.27-10.82-21.76-18-33.65-24.33-12.33-6.56-23-12.23-24.42-20.29-2.72-15.37-4.64-41.11-4.39-45.31.07-1.18.18-3.15,23.53-4.68,13.9-.9,29.73-1.23,39.92-1.23,4.57,0,8.49.07,11.34.19,4.53.18,14,.49,26,.87,34.61,1.11,86.91,2.79,92.6,4,7.52,1.61,16.87,6.06,20.81,12.35,1.95,3.13.07,15.23-2.66,25.83-4.2,16.26-11.94,35.44-21.07,40.52l-.2.11h-.22c-27.65.63-67.19,45-88.13,98.85Zm-37-91.25c22,9.56,34.8,69.88,37.63,84.59,21.71-53.88,60.11-96.18,88.38-97,8.54-5,15.92-23.5,20-39.28,3.44-13.34,4.05-22.53,2.88-24.41-3.63-5.81-12.73-10.05-19.65-11.53-5.53-1.19-59.82-2.93-92.26-4-12-.38-21.48-.68-26-.87-2.82-.12-6.71-.18-11.26-.18-26.7,0-59.21,1.88-61.64,4.32-.19,4.41,1.76,30,4.38,44.75,1.27,7.19,11.56,12.66,23.48,19S492.9,177.27,501.42,188.3Z" transform="translate(-154.32 -43)"/><path class="cls-8" d="M642.91,110.21c-15.72-5.85-53.37-7.14-98-7.31s-76.22-4.21-102,4.39c0,0,.92-5.93,2.44-14.16,8-2.19,23.21-4.46,51.3-3.76,51.18,1.28,92.12.92,107.47,1.65,11.68.56,27.29,1,37.94,3.12C642.65,102.59,642.91,110.21,642.91,110.21Z" transform="translate(-154.32 -43)"/><path class="cls-8" d="M643.87,111.54l-1.28-.48c-16.44-6.12-58.59-7.1-97.65-7.25-11.29,0-21.56-.33-31.49-.61-9.05-.25-17.6-.49-25.54-.49-14,0-30.31.65-44.67,5.44l-1.42.47.23-1.47c0-.06.94-6,2.45-14.18l.1-.57.55-.15c6.54-1.79,19-3.92,41.49-3.92,3.22,0,6.61,0,10.07.13,27.67.69,52,.9,71.6,1.07,16.1.14,28.83.25,35.89.59l4.67.21c10.72.48,24,1.07,33.41,2.92l.69.13,0,.7c.54,8.37.81,16,.81,16.1Zm-156-10.65c8,0,16.53.24,25.59.49,9.92.28,20.18.56,31.45.61,40.17.16,79.61,1.12,97,6.92-.1-2.46-.33-8-.71-14-9.19-1.72-22.06-2.29-32.45-2.75l-4.67-.21c-7-.34-19.74-.45-35.83-.59-19.58-.17-43.94-.38-71.62-1.07-3.45-.08-6.82-.13-10-.13-21.63,0-33.89,2-40.45,3.71-1,5.49-1.75,9.92-2.1,12.1C458.33,101.51,474.19,100.89,487.91,100.89Z" transform="translate(-154.32 -43)"/><path class="cls-8" d="M521.67,344.9a698.23,698.23,0,0,0-22.91-115.28c-11.94-42.4-14.62-56.17-14.87-57s21.57-1.83,22.91-1.34,4.88,6.11,12.43,19.25c6.59,11.46,20.45,59,25.92,81.82C542.75,286,521.67,344.9,521.67,344.9Z" transform="translate(-154.32 -43)"/><path class="cls-8" d="M521.15,349l-.39-4.06c0-.55-5.56-56.17-22.87-115.1-4.76-16.89-11.16-40.32-14.66-56.09-.12-.54-.18-.84-.21-.94l-.13-.44.29-.41c1.12-1.48,20.84-1.78,21-1.78a9.9,9.9,0,0,1,2.89.18c1.41.51,3.61,3.47,12.91,19.66,6.79,11.81,20.7,59.84,26,82.06l.05.18,0,.19c-2.38,13.63-22.65,70.31-23.52,72.71ZM485,173.16c0,.07,0,.15.05.23,3.49,15.73,9.88,39.13,14.63,56,14.7,50,20.91,97.69,22.5,111.46,4.64-13.1,19.94-56.72,22.07-68.48C539,250.72,525,202.42,518.44,191c-3.39-5.9-10.46-18.19-12-18.85h0a19.61,19.61,0,0,0-2.27-.07A182.36,182.36,0,0,0,485,173.16Z" transform="translate(-154.32 -43)"/><path class="cls-8" d="M421.93,215.67s-4.84,2.47-6.76-2.83-10.42-47.8-12.25-72.65,2.26-32.78,13.35-41.19,15.11-18,23.15-30.46S455.05,47.4,461,44.93c-3.91,7.64-8.54,30.31-9.64,42.37s6.58,36.44,14.86,56.17,14.42,27.46,21.1,28.48c1.57-.14-2.82,5.89-8.06,10S445.07,205.38,421.93,215.67Z" transform="translate(-154.32 -43)"/><path class="cls-8" d="M419.43,217.16c-1.37,0-3.85-.52-5.12-4-1.95-5.38-10.44-47.71-12.29-72.9-1.89-25.6,2.7-33.64,13.7-42C424.12,91.9,428.3,85,433.6,76.21c1.57-2.61,3.2-5.3,5-8.17,6-9.25,14.66-20.91,22-24l2.29-1-1.14,2.2c-3.68,7.19-8.4,29.5-9.54,42s7.26,37.8,14.79,55.74c7.81,18.59,13.91,26.94,20.4,27.93h0a1.11,1.11,0,0,1,1,.75c.65,1.84-4.72,7.79-8.65,10.89-5.53,4.38-34.28,23.47-57.53,33.81A6.88,6.88,0,0,1,419.43,217.16ZM459.1,47c-5.16,3.28-11.64,10.83-18.92,22.07-1.84,2.84-3.46,5.53-5,8.12-5.19,8.58-9.66,16-18.34,22.58-10.66,8.07-14.82,15.47-13,40.39,1.8,24.48,10.32,67.23,12.2,72.41.68,1.89,1.79,2.8,3.4,2.8a5.38,5.38,0,0,0,2.09-.47c23.19-10.32,52.34-29.77,57.18-33.59a34.55,34.55,0,0,0,7.83-8.54c-7-1.51-13.21-10-21.15-28.9-7.61-18.14-16.09-43.85-14.93-56.61C451.41,76.64,455.29,56.53,459.1,47Z" transform="translate(-154.32 -43)"/><path class="cls-8" d="M516,349.59a3.24,3.24,0,0,0,2.83,3.73c8.91,1,32.7,3.74,35.22,4.19,3.11.55,4.39-.37,4.94-9.14s8.77-49,14.43-70.19,18.83-75.85,37.47-96.14c-6.21-2.37-20.77-14.56-32-1.4-6.51,7.64-15.48,23.88-24.5,38.87C548.82,228.86,526,286.2,516,349.59Z" transform="translate(-154.32 -43)"/><path class="cls-8" d="M555.3,358.54h0a7.87,7.87,0,0,1-1.38-.14c-2.54-.45-27.56-3.31-35.16-4.18a4.16,4.16,0,0,1-3.63-4.77C525,286.67,547.78,228.83,553.66,219c2.07-3.44,4.14-6.94,6.17-10.39,6.86-11.65,13.35-22.65,18.41-28.6,3.58-4.21,7.9-6.34,12.82-6.34,6,0,11.84,3.15,16.09,5.44a41.43,41.43,0,0,0,4.1,2l1.25.48-.91,1c-17,18.47-29.64,66.76-35.73,90l-1.52,5.79c-5.52,20.61-13.86,61.18-14.42,70C559.51,355.14,558.68,358.54,555.3,358.54Zm35.76-183c-4.43,0-8.17,1.87-11.43,5.7-5,5.83-11.41,16.76-18.23,28.34-2,3.46-4.1,7-6.17,10.41-5.85,9.72-28.47,67.22-38.3,129.75a2.33,2.33,0,0,0,2,2.68c9.76,1.12,32.74,3.75,35.27,4.2a6,6,0,0,0,1.06.11h0c1.25,0,2.32-.63,2.81-8.41.55-8.9,8.94-49.68,14.46-70.36.46-1.72,1-3.66,1.53-5.78,6-23,18.45-70.35,35.31-89.79-.93-.44-2-1-3.12-1.63C602.2,178.55,596.61,175.53,591.06,175.53Z" transform="translate(-154.32 -43)"/><path class="cls-8" d="M678.46,104c-10.33-5.39-21.73-20.77-26.71-28-4.82-6.76-16.43-23.49-18.62-26.32a14.53,14.53,0,0,0-8.82-5.11c1.69,3.92,12.87,37.92,5.32,75-6.8,33.33-15.67,48.31-24.3,58.08a4.43,4.43,0,0,0,.3,6.18,161.2,161.2,0,0,0,63.84,35.54c4.27.85,7.07-1,9.63-7.92s13-38.45,12.79-73C691.35,117,688.79,109.39,678.46,104Z" transform="translate(-154.32 -43)"/><path class="cls-8" d="M671.29,220.37h0a10.39,10.39,0,0,1-2-.21A161.92,161.92,0,0,1,605,184.4a5.35,5.35,0,0,1-.37-7.45c7.47-8.45,17-22.63,24.1-57.66,7.08-34.76-2.51-68-5.27-74.42l-.63-1.46,1.58.2a15.48,15.48,0,0,1,9.43,5.45c1.39,1.8,6.41,9,11.27,15.88,2.84,4,5.57,8,7.37,10.47,4.49,6.56,16,22.38,26.39,27.78s13.36,13,13.92,35.14c.2,36.84-11.51,69.7-12.85,73.33C677.71,217.77,675.11,220.37,671.29,220.37ZM625.78,45.76c3.37,9.29,11.45,41,4.74,73.89-7.23,35.45-16.9,49.89-24.51,58.51a3.51,3.51,0,0,0,.24,4.9,160,160,0,0,0,63.47,35.33,8.53,8.53,0,0,0,1.57.16c2.17,0,4.52-.91,7-7.52,1.33-3.59,12.94-36.17,12.74-72.67-.55-21.57-3.21-28.48-12.94-33.56-10.71-5.59-22.48-21.68-27-28.35C649.21,74,646.47,70,643.63,66c-4.85-6.9-9.86-14-11.22-15.8A14,14,0,0,0,625.78,45.76Z" transform="translate(-154.32 -43)"/><path class="cls-10" d="M531.78,261.87a7.91,7.91,0,1,1-7.89-7.36A7.64,7.64,0,0,1,531.78,261.87Z" transform="translate(-154.32 -43)"/><path class="cls-11" d="M523.88,270.14a8.29,8.29,0,1,1,8.81-8.27A8.56,8.56,0,0,1,523.88,270.14Zm0-14.72a6.47,6.47,0,1,0,7,6.45A6.74,6.74,0,0,0,523.88,255.42Z" transform="translate(-154.32 -43)"/><path class="cls-10" d="M504,197.93c-1.7,2.07-5.88,1.43-9.34-1.42s-4.88-6.82-3.19-8.89,5.88-1.42,9.34,1.43S505.72,195.87,504,197.93Z" transform="translate(-154.32 -43)"/><path class="cls-11" d="M501,200.06a11.44,11.44,0,0,1-6.93-2.84,12.21,12.21,0,0,1-3.8-5.14,5,5,0,0,1,.49-5c2-2.41,6.86-1.79,10.62,1.3a12.21,12.21,0,0,1,3.8,5.14,5,5,0,0,1-.49,5A4.59,4.59,0,0,1,501,200.06Zm-6.55-12.73a2.9,2.9,0,0,0-2.28.87,3.32,3.32,0,0,0-.19,3.27,10.52,10.52,0,0,0,3.25,4.34,9.7,9.7,0,0,0,5.77,2.42,2.92,2.92,0,0,0,2.28-.87,3.32,3.32,0,0,0,.19-3.27,10.46,10.46,0,0,0-3.25-4.34A9.7,9.7,0,0,0,494.49,187.33Z" transform="translate(-154.32 -43)"/><path class="cls-12" d="M780.72,975.67c-.17,13.7-3.65,15.52-10.23,18.93s-32.54,14.51-70.19,22.18-110,9.14-166.33,10.24-125.75-10.6-161.2-16.45S322,985.71,319.39,979.5c-1.72-4.19-2.12-12-1.52-22.48,17.37,10.46,69.3,34.39,190.15,36.37,148.66,2.43,223.72-11.7,272.59-31.13C780.71,968.34,780.75,973,780.72,975.67Z" transform="translate(-154.32 -43)"/><path class="cls-2" d="M526.43,1028c-53.68,0-117.3-10.5-151.48-16.15l-2.33-.38c-35.95-5.93-51.46-25.31-54.07-31.63-1.71-4.14-2.23-11.63-1.58-22.87l.08-1.51,1.29.78c17,10.24,69.55,34.27,189.7,36.24,11.06.18,22,.27,32.4.27,109.85,0,186.06-10,239.83-31.34l1.23-.49,0,1.32c.1,6.31.14,10.83.11,13.44-.18,14.27-4.15,16.32-10.72,19.73-7,3.62-33.18,14.67-70.43,22.27-38,7.75-112.27,9.19-166.49,10.25C531.5,1028,529,1028,526.43,1028ZM318.7,958.57c-.49,10,0,16.92,1.54,20.58,2.5,6.08,17.55,24.73,52.67,30.52l2.34.38C411,1016,479,1027.17,534,1026.11c54.14-1.06,128.3-2.5,166.16-10.22,37-7.55,63-18.51,70-22.1,6.37-3.3,9.57-5,9.74-18.14,0-2.4,0-6.45-.09-12.06-53.92,21.13-130,31-239.28,31-10.45,0-21.36-.09-32.43-.27C390.32,992.37,337.12,969.27,318.7,958.57Z" transform="translate(-154.32 -43)"/></svg>