<svg xmlns="http://www.w3.org/2000/svg" xmlns:xlink="http://www.w3.org/1999/xlink" viewBox="0 0 2808.66 1456.31"><defs><style>.cls-1{fill:url(#radial-gradient);}.cls-2{fill:url(#radial-gradient-2);}.cls-12,.cls-17,.cls-3,.cls-30,.cls-35,.cls-40,.cls-51{mix-blend-mode:screen;}.cls-3{fill:url(#radial-gradient-3);}.cls-4{fill:url(#radial-gradient-4);}.cls-5{fill:url(#radial-gradient-5);}.cls-6{fill:url(#radial-gradient-6);}.cls-7{fill:none;}.cls-8{isolation:isolate;}.cls-9{clip-path:url(#clip-path);}.cls-10{fill:url(#linear-gradient);}.cls-11{mask:url(#mask);}.cls-12,.cls-17,.cls-35,.cls-40{opacity:0.8;}.cls-12{fill:url(#linear-gradient-2);}.cls-13,.cls-14,.cls-18,.cls-19,.cls-36,.cls-37,.cls-41,.cls-42{opacity:0.2;}.cls-13,.cls-14,.cls-18,.cls-19,.cls-21,.cls-22,.cls-23,.cls-24,.cls-25,.cls-26,.cls-28,.cls-31,.cls-36,.cls-37,.cls-41,.cls-42,.cls-44,.cls-45,.cls-46,.cls-47,.cls-48{mix-blend-mode:multiply;}.cls-13{fill:url(#linear-gradient-3);}.cls-14{fill:url(#linear-gradient-4);}.cls-15{fill:url(#linear-gradient-5);}.cls-16{mask:url(#mask-2);}.cls-17{fill:url(#linear-gradient-6);}.cls-18{fill:url(#linear-gradient-7);}.cls-19{fill:url(#linear-gradient-8);}.cls-20{fill:url(#linear-gradient-9);}.cls-21{fill:url(#linear-gradient-10);}.cls-22,.cls-23,.cls-24{opacity:0.4;}.cls-22{fill:url(#linear-gradient-11);}.cls-23{fill:url(#linear-gradient-12);}.cls-24{fill:url(#linear-gradient-13);}.cls-25,.cls-26{opacity:0.6;}.cls-25{fill:url(#linear-gradient-14);}.cls-26{fill:url(#linear-gradient-15);}.cls-27{fill:url(#linear-gradient-16);}.cls-28{fill:url(#radial-gradient-7);}.cls-29{mask:url(#mask-3);}.cls-30,.cls-47{opacity:0.5;}.cls-30{fill:url(#linear-gradient-17);}.cls-31{fill:#bfbfbf;}.cls-31,.cls-44,.cls-45,.cls-46{opacity:0.3;}.cls-32{fill:#c1c1c1;}.cls-33{fill:url(#linear-gradient-18);}.cls-34{mask:url(#mask-4);}.cls-35{fill:url(#linear-gradient-19);}.cls-36{fill:url(#linear-gradient-20);}.cls-37{fill:url(#linear-gradient-21);}.cls-38{fill:url(#linear-gradient-22);}.cls-39{mask:url(#mask-5);}.cls-40{fill:url(#linear-gradient-23);}.cls-41{fill:url(#linear-gradient-24);}.cls-42{fill:url(#linear-gradient-25);}.cls-43{fill:url(#linear-gradient-26);}.cls-44{fill:url(#linear-gradient-27);}.cls-45{fill:url(#linear-gradient-28);}.cls-46{fill:url(#linear-gradient-29);}.cls-47{fill:url(#linear-gradient-30);}.cls-48{fill:url(#linear-gradient-31);}.cls-49{fill:url(#linear-gradient-32);}.cls-50{mask:url(#mask-6);}.cls-51{opacity:0.7;fill:url(#linear-gradient-33);}</style><radialGradient id="radial-gradient" cx="683.3" cy="2467.42" fy="2445.594851665749" r="35.41" gradientUnits="userSpaceOnUse"><stop offset="0.4" stop-color="#fff"/><stop offset="1"/></radialGradient><radialGradient id="radial-gradient-2" cx="1524.62" cy="2467.42" fy="2445.5948982509094" r="35.41" gradientTransform="matrix(-1, 0, 0, 1, 2376.63, 0)" xlink:href="#radial-gradient"/><radialGradient id="radial-gradient-3" cx="768.29" cy="2448.62" r="64.54" gradientUnits="userSpaceOnUse"><stop offset="0.52" stop-color="#fff"/><stop offset="0.96"/></radialGradient><radialGradient id="radial-gradient-4" cx="890.62" cy="2467.42" fy="2445.595194377382" r="35.41" xlink:href="#radial-gradient"/><radialGradient id="radial-gradient-5" cx="1317.3" cy="2467.42" fy="2445.595205051214" r="35.41" gradientTransform="matrix(-1, 0, 0, 1, 2376.63, 0)" xlink:href="#radial-gradient"/><radialGradient id="radial-gradient-6" cx="967.39" cy="2473.51" r="83.7" gradientUnits="userSpaceOnUse"><stop offset="0.12" stop-color="#fff"/><stop offset="0.35" stop-color="#fff"/><stop offset="0.99"/></radialGradient><clipPath id="clip-path" transform="translate(-28.22 -121.17)"><rect class="cls-7" width="2868.16" height="1743.29"/></clipPath><linearGradient id="linear-gradient" x1="-71.34" y1="537.17" x2="670.84" y2="497.81" gradientUnits="userSpaceOnUse"><stop offset="0.19" stop-color="#eaeaea"/><stop offset="0.59" stop-color="#d4d4d4"/><stop offset="1" stop-color="#bfbfbf"/></linearGradient><mask id="mask" x="9.85" y="148.88" width="665.28" height="2231.82" maskUnits="userSpaceOnUse"><g transform="translate(-28.22 -121.17)"><path class="cls-1" d="M667.91,2493.2s17.92-35.83,21.47-42.25,8.35-15,10.94-15.46,1.51,1.64,1.64,6.29,2.88,25.44.28,28.45-5.47,0-6.57-3.42-2.32-4.24-1.78.82,2.47,10.26-2,14.49-10.11,17.23-11.35,19.29S671.33,2498.53,667.91,2493.2Z"/></g></mask><linearGradient id="linear-gradient-2" x1="139.92" y1="471.27" x2="259.41" y2="537.33" gradientUnits="userSpaceOnUse"><stop offset="0" stop-color="#969696"/><stop offset="0.15" stop-color="#fff"/><stop offset="0.34" stop-color="#fff"/><stop offset="0.99" stop-color="#969696"/></linearGradient><linearGradient id="linear-gradient-3" x1="-6.89" y1="488.91" x2="339.83" y2="526.39" gradientUnits="userSpaceOnUse"><stop offset="0.42" stop-color="#fff"/><stop offset="0.8" stop-color="#d4d4d4"/><stop offset="1" stop-color="#bfbfbf"/></linearGradient><linearGradient id="linear-gradient-4" x1="-7.02" y1="490.16" x2="339.71" y2="527.64" xlink:href="#linear-gradient-3"/><linearGradient id="linear-gradient-5" x1="862.14" y1="537.17" x2="1604.33" y2="497.81" gradientTransform="matrix(-1, 0, 0, 1, 2376.63, 0)" xlink:href="#linear-gradient"/><mask id="mask-2" x="803.73" y="148.88" width="573.12" height="2231.82" maskUnits="userSpaceOnUse"><g transform="translate(-28.22 -121.17)"><path class="cls-2" d="M867.39,2493.2s-17.91-35.83-21.46-42.25-8.35-15-10.94-15.46-1.51,1.64-1.64,6.29-2.88,25.44-.28,28.45,5.47,0,6.57-3.42,2.32-4.24,1.77.82-2.46,10.26,2.05,14.49,10.12,17.23,11.35,19.29S864,2498.53,867.39,2493.2Z"/></g></mask><linearGradient id="linear-gradient-6" x1="1073.42" y1="471.27" x2="1192.89" y2="537.33" gradientTransform="matrix(-1, 0, 0, 1, 2376.63, 0)" xlink:href="#linear-gradient-2"/><linearGradient id="linear-gradient-7" x1="926.59" y1="488.91" x2="1273.32" y2="526.39" gradientTransform="matrix(-1, 0, 0, 1, 2376.63, 0)" xlink:href="#linear-gradient-3"/><linearGradient id="linear-gradient-8" x1="926.47" y1="490.16" x2="1273.2" y2="527.64" gradientTransform="matrix(-1, 0, 0, 1, 2376.63, 0)" xlink:href="#linear-gradient-3"/><linearGradient id="linear-gradient-9" x1="700.59" y1="-214.72" x2="739.95" y2="1879.69" gradientUnits="userSpaceOnUse"><stop offset="0" stop-color="#bfbfbf"/><stop offset="0.1" stop-color="#d4d4d4"/><stop offset="0.27" stop-color="#eaeaea"/><stop offset="0.78" stop-color="#eaeaea"/><stop offset="1" stop-color="#d4d4d4"/></linearGradient><linearGradient id="linear-gradient-10" x1="192.7" y1="1566.92" x2="1238.48" y2="1566.92" gradientUnits="userSpaceOnUse"><stop offset="0" stop-color="#bfbfbf"/><stop offset="0.1" stop-color="#d4d4d4"/><stop offset="0.27" stop-color="#fff"/><stop offset="0.72" stop-color="#fff"/><stop offset="0.91" stop-color="#d4d4d4"/><stop offset="1" stop-color="#bfbfbf"/></linearGradient><linearGradient id="linear-gradient-11" x1="192.69" y1="854.74" x2="1238.48" y2="854.74" gradientUnits="userSpaceOnUse"><stop offset="0" stop-color="#bfbfbf"/><stop offset="0.1" stop-color="#d4d4d4"/><stop offset="0.27" stop-color="#fff"/><stop offset="0.72" stop-color="#fff"/><stop offset="0.92" stop-color="#d4d4d4"/><stop offset="1" stop-color="#bfbfbf"/></linearGradient><linearGradient id="linear-gradient-12" x1="141.29" y1="628.45" x2="1242.41" y2="628.45" xlink:href="#linear-gradient-11"/><linearGradient id="linear-gradient-13" x1="136.47" y1="854.58" x2="1182.25" y2="854.58" gradientUnits="userSpaceOnUse"><stop offset="0" stop-color="#bfbfbf"/><stop offset="0.13" stop-color="#d4d4d4"/><stop offset="0.35" stop-color="#fff"/><stop offset="0.72" stop-color="#fff"/><stop offset="0.91" stop-color="#d4d4d4"/><stop offset="1" stop-color="#bfbfbf"/></linearGradient><linearGradient id="linear-gradient-14" x1="136.47" y1="591.15" x2="1182.25" y2="591.15" xlink:href="#linear-gradient-13"/><linearGradient id="linear-gradient-15" x1="136.48" y1="1166.41" x2="1182.22" y2="1166.41" xlink:href="#linear-gradient-13"/><linearGradient id="linear-gradient-16" x1="711.28" y1="287.11" x2="726.74" y2="50.95" xlink:href="#linear-gradient"/><radialGradient id="radial-gradient-7" cx="720.27" cy="35.2" r="220.22" gradientUnits="userSpaceOnUse"><stop offset="0.51" stop-color="#fff"/><stop offset="0.87" stop-color="#d4d4d4"/><stop offset="1" stop-color="#bfbfbf"/></radialGradient><mask id="mask-3" x="314.54" y="87.87" width="773.26" height="2290.11" maskUnits="userSpaceOnUse"><g transform="translate(-28.22 -121.17)"><path class="cls-3" d="M718,2431.12c8.73-4.15,18.6-7.66,27.63,0s26.25,10.94,41.29,1.91,16.15-6.39,25.16-5.19c18.6,2.46,13.68,44.85,8.21,35s-9.57-20.51-5.47-2.46c6.49,28.55-1.09,20.24-7.39,10.67s3.56,15.86,1.37,21.88-14.77,7.11-32.27,2.46-30.08,7.66-41,2.46-8.76-15.86-4.11-28.17,9.85-30.36-.82-11.21-12,10.39-8.2-5.47,2.19-15.32-2.74-4.93S707,2436.32,718,2431.12Z"/></g></mask><linearGradient id="linear-gradient-17" x1="728.45" y1="161.77" x2="731.26" y2="712.78" gradientUnits="userSpaceOnUse"><stop offset="0.04" stop-color="#969696"/><stop offset="0.3" stop-color="#fff"/><stop offset="0.43" stop-color="#fff"/><stop offset="0.73" stop-color="#d4d4d4"/><stop offset="0.99" stop-color="#969696"/></linearGradient><linearGradient id="linear-gradient-18" x1="1349.39" y1="537.17" x2="2091.55" y2="497.81" xlink:href="#linear-gradient"/><mask id="mask-4" x="847.01" y="148.88" width="826.41" height="2231.82" maskUnits="userSpaceOnUse"><g transform="translate(-28.22 -121.17)"><path class="cls-4" d="M875.24,2493.2s17.91-35.83,21.46-42.25,8.34-15,10.94-15.46,1.51,1.64,1.64,6.29,2.88,25.44.28,28.45-5.47,0-6.57-3.42-2.32-4.24-1.77.82,2.46,10.26-2.05,14.49-10.12,17.23-11.35,19.29S878.65,2498.53,875.24,2493.2Z"/></g></mask><linearGradient id="linear-gradient-19" x1="1560.65" y1="471.27" x2="1680.13" y2="537.33" xlink:href="#linear-gradient-2"/><linearGradient id="linear-gradient-20" x1="1413.85" y1="488.91" x2="1760.55" y2="526.39" xlink:href="#linear-gradient-3"/><linearGradient id="linear-gradient-21" x1="1413.73" y1="490.16" x2="1760.43" y2="527.64" xlink:href="#linear-gradient-3"/><linearGradient id="linear-gradient-22" x1="-558.51" y1="537.17" x2="183.61" y2="497.81" gradientTransform="matrix(-1, 0, 0, 1, 2376.63, 0)" xlink:href="#linear-gradient"/><mask id="mask-5" x="1011.05" y="148.88" width="1786.47" height="2231.82" maskUnits="userSpaceOnUse"><g transform="translate(-28.22 -121.17)"><path class="cls-5" d="M1074.71,2493.2s-17.92-35.83-21.47-42.25-8.34-15-10.94-15.46-1.5,1.64-1.64,6.29-2.87,25.44-.27,28.45,5.47,0,6.56-3.42,2.32-4.24,1.78.82-2.46,10.26,2,14.49,10.12,17.23,11.35,19.29S1071.29,2498.53,1074.71,2493.2Z"/></g></mask><linearGradient id="linear-gradient-23" x1="-347.26" y1="471.27" x2="-227.78" y2="537.33" gradientTransform="matrix(-1, 0, 0, 1, 2376.63, 0)" xlink:href="#linear-gradient-2"/><linearGradient id="linear-gradient-24" x1="-494.07" y1="488.91" x2="-147.37" y2="526.39" gradientTransform="matrix(-1, 0, 0, 1, 2376.63, 0)" xlink:href="#linear-gradient-3"/><linearGradient id="linear-gradient-25" x1="-494.19" y1="490.16" x2="-147.49" y2="527.64" gradientTransform="matrix(-1, 0, 0, 1, 2376.63, 0)" xlink:href="#linear-gradient-3"/><linearGradient id="linear-gradient-26" x1="2124.04" y1="-214.72" x2="2163.4" y2="1879.69" gradientUnits="userSpaceOnUse"><stop offset="0" stop-color="#bfbfbf"/><stop offset="0.1" stop-color="#d4d4d4"/><stop offset="0.21" stop-color="#eaeaea"/><stop offset="0.42" stop-color="#eaeaea"/><stop offset="1" stop-color="#d4d4d4"/></linearGradient><linearGradient id="linear-gradient-27" x1="1550.43" y1="884.24" x2="2646.82" y2="887.05" gradientUnits="userSpaceOnUse"><stop offset="0.13" stop-color="#bfbfbf"/><stop offset="0.23" stop-color="#d4d4d4"/><stop offset="0.49" stop-color="#fff"/><stop offset="0.61" stop-color="#fff"/><stop offset="0.82" stop-color="#d4d4d4"/><stop offset="0.93" stop-color="#bfbfbf"/></linearGradient><linearGradient id="linear-gradient-28" x1="1708.92" y1="921.71" x2="2574.95" y2="921.71" xlink:href="#linear-gradient-13"/><linearGradient id="linear-gradient-29" x1="1709.18" y1="904.41" x2="2574.8" y2="904.41" xlink:href="#linear-gradient-13"/><linearGradient id="linear-gradient-30" x1="1708.92" y1="1012.49" x2="2574.96" y2="1012.49" xlink:href="#linear-gradient-13"/><linearGradient id="linear-gradient-31" x1="1616.16" y1="1566.92" x2="2661.93" y2="1566.92" xlink:href="#linear-gradient-10"/><linearGradient id="linear-gradient-32" x1="2141.36" y1="225.39" x2="2139.48" y2="81.07" xlink:href="#linear-gradient"/><mask id="mask-6" x="883.51" y="43.42" width="1651.81" height="2418.46" maskUnits="userSpaceOnUse"><g transform="translate(-28.22 -121.17)"><path class="cls-6" d="M953.17,2564c-16.8-33.1-21.34-42.67-24.62-66.05s-6.15-18.87-9.43-30.77-6.16-19.28-7.39-32.41a92.91,92.91,0,0,1,17.23-9c10.26-4.1,13.13-7,20.11-2.46s35.57,10.25,50.86-1.23c4.93-3.69,7-1.64,14,.41s24.21,11.08,24.21,11.08a146.11,146.11,0,0,1-6.57,26.26c-4.47,12.67-7.79,23.79-12.71,43.07s-7,36.1-25.44,60.3S967.12,2591.52,953.17,2564Z"/></g></mask><linearGradient id="linear-gradient-33" x1="2131.35" y1="183.89" x2="2120.11" y2="1347.75" gradientUnits="userSpaceOnUse"><stop offset="0.02" stop-color="#969696"/><stop offset="0.12" stop-color="#fff"/><stop offset="0.23" stop-color="#fff"/><stop offset="0.4" stop-color="#d4d4d4"/><stop offset="0.99" stop-color="#969696"/></linearGradient></defs><g class="cls-8"><g id="Layer_1" data-name="Layer 1"><g class="cls-9"><path class="cls-10" d="M269.53,247.75s-16.4,5.11-39.6,38.76S31,667.34,31,667.34s75.9,108.93,267.07,121.58l26-85.74S315,341.94,269.53,247.75Z" transform="translate(-28.22 -121.17)"/><g class="cls-11"><path class="cls-12" d="M38.07,665.88S160.82,420.36,185.19,376.31s57.17-103.09,75-105.9,10.31,11.24,11.24,43.11,19.69,174.31,1.88,194.92-37.49,0-45-23.43-15.93-29.05-12.19,5.63S233,560.92,202.06,590,132.72,708,124.28,722.09,61.49,702.42,38.07,665.88Z" transform="translate(-28.22 -121.17)"/></g><path class="cls-13" d="M271.23,251.48c10.09,50.2,1.63,103.51,4,154.25,1.57,32.95,2.48,65.89,6.58,98.63,2.79,22.24,6.46,46.13-2,67.57-1.26,3.22-4.71,4.27-7.42,2-48-41-44.56-111-59.21-168.69C201.34,480.81,227.39,555.93,247,628.45c2.86,10.53,31.06,82.17,5.16,79.53-13.85-1.4-23.73-15-31.63-25.13-12.54-16-23.15-33.68-33.19-51.34-24.67-43.45-28.59-96.3-54.11-138.85-8.59,60.51,20.65,121.7,50.73,172.52,12.71,21.47,29.67,41.75,40.87,63.91,5.3,10.48,6.41,20-5.71,25.19-22.19,9.46-54.12-3.12-74.43-11.44C117.6,731.73,91.4,717.3,65.77,703c39.2,33,113.47,78.07,232.34,85.93l26-85.74S315.2,351,271.23,251.48Z" transform="translate(-28.22 -121.17)"/><path class="cls-14" d="M272.34,254.13C288.43,320,293.56,388,295,455.56c.79,38.7.59,77.42.57,116.13,0,14.51,2.58,29.22.88,43.7-.74,6.25-2.64,22.18-9.49,24.86-12.65,5-23.29-22.52-27.28-30.56-17.3-34.91-25.51-72.18-35.2-109.66-3.63-14-7.05-28.21-10-42.47,4.46,30.77,7.89,61.42,16,92,6.08,22.83,11.65,47.22,22.35,68.39,7.61,15.05,16.77,29.5,23.44,45,8.19,19.07,15.54,82.67-28.76,51.18-39.71-28.2-61.85-64.31-81.6-107.46a435.88,435.88,0,0,1-30.08-90.48c7.45,53,24.73,102.12,55.14,148,12,18.15,25.73,35.61,42.45,49.67,10.6,8.9,51.91,32.09,31.71,49.65C247.37,779,194.82,768,174.45,764c34.28,12.23,75.2,21.68,123.66,24.88l26-85.74S315.34,357.07,272.34,254.13Z" transform="translate(-28.22 -121.17)"/><path class="cls-15" d="M1173.62,247.75s16.39,5.11,39.59,38.76S1412.1,667.34,1412.1,667.34,1336.2,776.27,1145,788.92l-26-85.74S1128.16,341.94,1173.62,247.75Z" transform="translate(-28.22 -121.17)"/><g class="cls-16"><path class="cls-17" d="M1405.07,665.88s-122.76-245.52-147.13-289.57-57.15-103.09-75-105.9-10.31,11.24-11.24,43.11-19.69,174.31-1.88,194.92,37.48,0,45-23.43,15.94-29.05,12.18,5.63-16.86,70.28,14.06,99.32,69.34,118.08,77.78,132.13S1381.64,702.42,1405.07,665.88Z" transform="translate(-28.22 -121.17)"/></g><path class="cls-18" d="M1171.92,251.48c-10.1,50.2-1.64,103.51-4.06,154.25-1.57,32.95-2.48,65.89-6.58,98.63-2.79,22.24-6.46,46.13,2,67.57,1.26,3.22,4.72,4.27,7.41,2,48-41,44.58-111,59.22-168.69,11.93,75.61-14.12,150.73-33.76,223.25-2.85,10.53-31,82.17-5.15,79.53,13.85-1.4,23.73-15,31.62-25.13,12.56-16,23.16-33.68,33.19-51.34,24.69-43.45,28.59-96.3,54.12-138.85,8.58,60.51-20.65,121.7-50.73,172.52-12.71,21.47-29.67,41.75-40.88,63.91-5.29,10.48-6.41,20,5.72,25.19,22.19,9.46,54.12-3.12,74.44-11.44,27.1-11.11,53.3-25.54,78.94-39.85-39.2,33-113.48,78.07-232.35,85.93l-26-85.74S1127.94,351,1171.92,251.48Z" transform="translate(-28.22 -121.17)"/><path class="cls-19" d="M1170.8,254.13C1154.71,320,1149.59,388,1148.2,455.56c-.8,38.7-.61,77.42-.59,116.13,0,14.51-2.57,29.22-.87,43.7.74,6.25,2.65,22.18,9.48,24.86,12.66,5,23.3-22.52,27.29-30.56,17.3-34.91,25.52-72.18,35.2-109.66,3.63-14,7-28.21,10-42.47-4.44,30.77-7.88,61.42-16,92-6.08,22.83-11.65,47.22-22.35,68.39-7.61,15.05-16.78,29.5-23.43,45-8.2,19.07-15.54,82.67,28.75,51.18,39.7-28.2,61.85-64.31,81.6-107.46a436.47,436.47,0,0,0,30.08-90.48c-7.45,53-24.73,102.12-55.14,148-12,18.15-25.73,35.61-42.46,49.67-10.59,8.9-51.89,32.09-31.7,49.65,17.76,15.45,70.31,4.53,90.68.54-34.28,12.23-75.2,21.68-123.66,24.88l-26-85.74S1127.79,357.07,1170.8,254.13Z" transform="translate(-28.22 -121.17)"/><path class="cls-20" d="M1172.88,246.52,872.31,122.82s-50.84,40.06-150.64,36.55c-99.8,3.51-151.57-36.55-151.57-36.55L269.53,246.52S322,651.34,322,857.5s-52.47,660.65-52.47,660.65c214.59,54.36,451.68,55.29,451.68,55.29s237.08-.93,451.67-55.29c0,0-52.47-454.48-52.47-660.65S1172.88,246.52,1172.88,246.52Z" transform="translate(-28.22 -121.17)"/><path class="cls-21" d="M798.31,1570.62c18.94-1.41,41.13-3.33,64.19-6.16a4.18,4.18,0,0,0-3.72-1.18C838.69,1566.78,818.52,1569.12,798.31,1570.62Z" transform="translate(-28.22 -121.17)"/><path class="cls-22" d="M1172.88,246.52,921.54,143.07c-15.77,47.65-44.61,92.19-83.48,121.45.64-.4,1.31-.76,1.94-1.18,19.79-13.09,34.93-29.8,52-45.94C916,194.83,940.64,182.78,974,189a182.55,182.55,0,0,1,39.75,12.54c21.13,8.11,41.36,18.55,61.17,29.78,20.25,11.49,43.32,24.9,54.28,46.51,15,29.63,13.8,67.2,12.4,99.51-1.52,35.34-6.52,70.08-11.24,105.08-2,15.26-5.55,46.85-28.53,45.12-18.66-1.4-28.31-20.85-35.11-36-22.31-49.91-37-102.7-55.63-153.94,17.19,63.74,35.68,127.13,52.66,190.92,6.57,24.68,13.85,49.48,16.35,75,1.33,13.67,3.54,32.79-7.61,43.25-10.29,9.66-28.7-1.69-36.52-9.09-19.9-18.87-32.51-44.56-44.38-68.88-22.2-45.52-49.73-87.76-74.5-131.68C962.66,517.91,998,616,1031.05,703c39.68,104.39,58,214.43,72,324.73,14.62,115.38,56.72,306,.52,416-27.86,54.53-30.92,47.8-106.83,87.15-34.38,17.84-86.2,27.76-134.21,33.66a5,5,0,0,1,1.29,1.94c86.44-7,200.63-20.78,309.09-48.25,0,0-52.47-454.48-52.47-660.65S1172.88,246.52,1172.88,246.52Z" transform="translate(-28.22 -121.17)"/><path class="cls-23" d="M1164.43,315.19q-6.73,29.51-12.54,59.22c-5.21,26.6-22,218.23-44.5,219.14-13.52.55-29.39-34.57-32.1-44.25,9,32.12,16.91,64.71,20.66,97.89,2.85,25.29,9.91,62.72-1.73,86.89-15.77,32.78-38.44-21.58-44.09-32.6-8.61-16.78-35.06-64.27-43.58-81.52,17.8,50.08,50,116.06,68.88,165.85,18.56,49.06,31.21,105.51,47.09,155.89-1.34-30.84-2.11-59.33-2.11-84.2C1120.41,703.78,1149.58,439.63,1164.43,315.19Z" transform="translate(-28.22 -121.17)"/><path class="cls-24" d="M401.85,1498.76c-28.82-23.21-49-55.55-55.83-92.1-17.93-95,20.5-189,43.31-279.91,14.06-56,26.56-112.45,44.06-167.5,16.5-51.91,65.13-169.69,71.35-224-3.73,31.87-58,133.6-74.88,161.28-12.09,19.85-39.92,70.53-70.3,57.08-20.45-9-7-55.89-4.88-71.05,12.76-92.42,42.16-178.2,73.63-266C465.38,513.12,494,470.81,518.49,394.82c-28.07,40.1-52.86,83-76.13,125.86-19.06,35.08-37.55,77.49-75.11,96.36a4.28,4.28,0,0,1-6.2-2.52c-11.7-41.7,8.66-87.91,18.77-128.06,12.63-50.2,27.62-100,36.71-151-7.29,40.84-33,79.24-48.24,117.32-11,27.38-34.18,28.86-39.84,1.15-40.17-196.66-30.69-201.34,40.42-232.27,44.84-19.5,110.51-64.23,158.44-32.37,22.51,15,39.73,36.86,59.36,55.43-28.33-28.08-48.37-65.26-59.28-104.34L269.53,246.52S322,651.34,322,857.5s-52.47,660.65-52.47,660.65c122.47,31,252.24,44.64,341.1,50.62-26.23-4.64-52.24-10.48-77.86-17.44C488.82,1539.41,438.12,1528,401.85,1498.76Z" transform="translate(-28.22 -121.17)"/><path class="cls-25" d="M320.81,918.28c2.35-26.64,5.42-53.19,11.73-79.6,14.18-59.25,41.35-113.32,64-169.52q9.92-24.6,19.13-49.51c-2.8,6.15-5.6,12.31-8.45,18.46-8.53,18.35-17.35,36.82-28.53,53.73-5.11,7.73-11.15,19.4-19.62,24.14-31.86,17.81-25.53-74.49-25.57-86.36-.17-38.52,6-74.65,20.64-110.37,10-24.37,22.4-47.54,31.3-72.18q-3.63,6.48-7.13,13c-6.14,11.44-30.95,78.47-52.86,53.48-9.16-10.44-10.39-29.37-11.95-42.34C311,450.36,310,429.44,309,408.5c-2.47-49.74-12.28-101.14-37.25-144.49C281.72,343.73,322,676.87,322,857.5,322,875.93,321.58,896.38,320.81,918.28Z" transform="translate(-28.22 -121.17)"/><path class="cls-26" d="M326.43,1514.83c-19.13-25.82-24.35-56.75-23.81-88.28a771.45,771.45,0,0,1,14.66-137.31c34.07-171,114.7-327,168.27-491.91-11.77,26.79-24.61,53.16-37.76,79.26-19.69,39.08-39.65,78-58.23,117.63-18.86,40.25-57.24,70.86-61,3.39-.18-3.29-4.38-95.31-5.62-98.4-13.12,214.59-53.42,618.94-53.42,618.94,25.78,6.53,51.88,12.25,77.87,17.33A97.63,97.63,0,0,1,326.43,1514.83Z" transform="translate(-28.22 -121.17)"/><path class="cls-27" d="M873,121.17s-24.6,125.35-151.81,128.16C594,246.52,569.39,121.17,569.39,121.17l-35.84,14.3C568,294.31,721.21,285.17,721.21,285.17s153.21,9.14,187.65-149.7Z" transform="translate(-28.22 -121.17)"/><path class="cls-28" d="M872.31,122.82s-50.84,40.06-150.64,36.55c-99.8,3.51-151.57-36.55-151.57-36.55l-.31.12c3.51,15,33,123.77,151.42,126.39C839.62,246.71,869.11,138,872.62,122.94Z" transform="translate(-28.22 -121.17)"/><g class="cls-29"><path class="cls-30" d="M381.05,240.43c59.82-28.42,127.44-52.48,189.29,0s179.93,75,283,13.12S964,209.77,1025.77,217.94c127.44,16.87,93.71,307.36,56.22,239.89S1016.4,317.27,1044.51,441C1089,636.62,1037,579.66,993.9,514.06s24.37,108.71,9.38,149.94-101.21,48.72-221.16,16.87S576,733.35,501,697.73s-60-108.71-28.11-193,67.47-208-5.63-76.84S384.79,499.07,411,390.36s15-104.95-18.75-33.74S306.08,276,381.05,240.43Z" transform="translate(-28.22 -121.17)"/></g><path class="cls-31" d="M533.55,135.47c1.49,5.25,2.81,10.56,4.43,15.77,1.85,5.12,3.24,10.38,5.41,15.39s4,10.09,6.53,14.92c2.23,4.95,5,9.62,7.68,14.34s5.7,9.2,8.88,13.57l4.85,6.5,5.25,6.17c1.7,2.09,3.59,4,5.49,6s3.69,3.93,5.76,5.67l6,5.41,6.32,5c4.33,3.2,8.69,6.37,13.31,9.13,4.52,2.92,9.26,5.5,14,8s9.71,4.63,14.7,6.68,10.09,3.79,15.23,5.4a213.58,213.58,0,0,0,31.52,7q8,1.17,16.07,1.69a147.89,147.89,0,0,0,16,.27h.33a150.48,150.48,0,0,0,16-.28c5.38-.33,10.73-.91,16.06-1.68A211,211,0,0,0,785,273.34q7.71-2.4,15.23-5.38c5-2,9.91-4.23,14.7-6.68s9.52-5,14-8c4.63-2.76,9-5.93,13.32-9.13l6.32-5,6-5.4c2.06-1.74,3.84-3.78,5.76-5.68s3.79-3.84,5.5-5.93l5.24-6.18,4.86-6.49c3.18-4.37,6.06-9,8.87-13.59s5.45-9.37,7.68-14.32c2.49-4.83,4.52-9.88,6.53-14.92,2.18-5,3.58-10.28,5.42-15.41,1.62-5.2,2.94-10.49,4.43-15.75-1.22,5.31-2.26,10.69-3.62,16-1.63,5.22-2.84,10.59-4.83,15.69-1.83,5.16-3.68,10.33-6,15.3-2.07,5.09-4.69,9.93-7.22,14.8a170.47,170.47,0,0,1-42.29,50.35c-4.37,3.39-8.77,6.75-13.45,9.69a161.12,161.12,0,0,1-14.34,8.33c-4.9,2.55-9.94,4.83-15,7s-10.32,4-15.58,5.65a215.11,215.11,0,0,1-32.27,7.48Q746,287,737.75,287.57A151.85,151.85,0,0,1,721,288h.33a157,157,0,0,1-16.71-.41q-8.28-.58-16.47-1.87a216.31,216.31,0,0,1-32.27-7.47q-7.89-2.53-15.58-5.65c-5.1-2.14-10.13-4.42-15-7A157.51,157.51,0,0,1,611,257.28c-4.68-2.94-9.08-6.32-13.45-9.7a170.42,170.42,0,0,1-42.28-50.34c-2.53-4.89-5.16-9.71-7.22-14.8-2.33-5-4.17-10.14-6-15.3s-3.2-10.48-4.83-15.69C535.81,146.15,534.77,140.8,533.55,135.47Z" transform="translate(-28.22 -121.17)"/><path class="cls-31" d="M873,121.17a129.17,129.17,0,0,1-4.65,17.9,186.26,186.26,0,0,1-21,44.09c-11.08,16.9-27.29,35.28-49.57,48.18a146.82,146.82,0,0,1-36.36,15.07,176.29,176.29,0,0,1-40.2,5.73,176.52,176.52,0,0,1-40.33-5.71,147.62,147.62,0,0,1-36.36-15.09c-22.29-12.89-38.49-31.28-49.58-48.17a186,186,0,0,1-21-44.1,127.35,127.35,0,0,1-4.65-17.9,150.92,150.92,0,0,0,5.68,17.54,198.94,198.94,0,0,0,22.55,42.68,164.11,164.11,0,0,0,20.83,24.44A150.09,150.09,0,0,0,647,227.13a141.85,141.85,0,0,0,35.25,14.21,149.05,149.05,0,0,0,77.87,0,142.26,142.26,0,0,0,35.25-14.22A149,149,0,0,0,824,205.83a162.44,162.44,0,0,0,20.83-24.44,198.48,198.48,0,0,0,22.55-42.68A150.92,150.92,0,0,0,873,121.17Z" transform="translate(-28.22 -121.17)"/><path class="cls-32" d="M721.22,1577.48h0c-2.37,0-239.89-1.56-452.36-55.38a2.8,2.8,0,0,1-2.1-3c.52-4.55,52.46-456.67,52.46-660.31,0-32.27-1.3-71.52-3.89-116.82l-14.5,47.82a2.85,2.85,0,0,1-2.88,2C107.61,779.14,29.5,670,28.73,668.94a2.81,2.81,0,0,1-.2-2.88c7.18-14.17,176.05-347.73,199.09-381.15,23.47-34.05,40.36-39.62,41.07-39.84L569,121.46a2.83,2.83,0,0,1,2.79.37c.49.39,52.29,39.46,149.75,36,4.36.15,8.44.22,12.42.22,89.48,0,136.12-35.8,136.58-36.17a2.79,2.79,0,0,1,2.81-.38L1174,245.15c.47.14,17.36,5.71,40.83,39.76,23,33.42,191.91,367,199.09,381.15a2.81,2.81,0,0,1-.2,2.88c-.77,1.1-78.88,110.2-269.19,122.79a2.83,2.83,0,0,1-2.88-2l-14.5-47.82c-2.59,45.3-3.89,84.55-3.89,116.82,0,203.64,51.94,655.76,52.46,660.31a2.8,2.8,0,0,1-2.1,3C961.1,1575.92,723.59,1577.47,721.22,1577.48ZM272.6,1517.26c210.88,53,445.59,54.59,448.61,54.6s237.72-1.62,448.6-54.6c-4.14-36.32-52.21-462.35-52.21-658.51,0-36.06,1.62-80.75,4.83-132.87a2.81,2.81,0,0,1,2.47-2.62,2.85,2.85,0,0,1,3,2L1146.34,786c174.5-12.3,252.28-106.55,261.74-118.9-12.82-25.31-175.89-347-197.91-379-22.17-32.14-38-37.62-38.15-37.67L872.72,127.26c-8.79,6.36-59.14,39.34-151.15,36.16-4,.14-8.17.21-12.22.21-84.36,0-131.2-30.36-139.64-36.37L270.59,250.35c-.36.13-16.18,5.61-38.35,37.75-22,31.95-185.09,353.65-197.91,379,9.46,12.35,87.24,106.6,261.74,118.9l18.42-60.72a2.86,2.86,0,0,1,3-2,2.81,2.81,0,0,1,2.47,2.62c3.21,52.12,4.83,96.81,4.83,132.87C324.81,1054.91,276.74,1480.94,272.6,1517.26Z" transform="translate(-28.22 -121.17)"/><path class="cls-33" d="M1690.25,247.75s-16.39,5.11-39.59,38.76-198.89,380.83-198.89,380.83,75.9,108.93,267.06,121.58l26-85.74S1735.69,341.94,1690.25,247.75Z" transform="translate(-28.22 -121.17)"/><g class="cls-34"><path class="cls-35" d="M1458.81,665.88s122.75-245.52,147.11-289.57,57.16-103.09,75-105.9,10.31,11.24,11.24,43.11,19.69,174.31,1.88,194.92-37.48,0-45-23.43-15.93-29.05-12.2,5.63,16.88,70.28-14,99.32S1553.45,708,1545,722.09,1482.23,702.42,1458.81,665.88Z" transform="translate(-28.22 -121.17)"/></g><path class="cls-36" d="M1692,251.48c10.09,50.2,1.62,103.51,4.06,154.25,1.56,32.95,2.47,65.89,6.58,98.63,2.79,22.24,6.45,46.13-2,67.57-1.25,3.22-4.72,4.27-7.41,2-48-41-44.57-111-59.21-168.69-11.94,75.61,14.12,150.73,33.75,223.25,2.85,10.53,31,82.17,5.16,79.53-13.84-1.4-23.72-15-31.63-25.13-12.54-16-23.16-33.68-33.18-51.34-24.68-43.45-28.6-96.3-54.11-138.85-8.6,60.51,20.63,121.7,50.72,172.52,12.7,21.47,29.68,41.75,40.86,63.91,5.3,10.48,6.42,20-5.71,25.19-22.18,9.46-54.11-3.12-74.42-11.44-27.1-11.11-53.31-25.54-78.94-39.85,39.19,33,113.47,78.07,232.33,85.93l26-85.74S1735.92,351,1692,251.48Z" transform="translate(-28.22 -121.17)"/><path class="cls-37" d="M1693.06,254.13c16.09,65.82,21.22,133.82,22.61,201.43.8,38.7.6,77.42.57,116.13,0,14.51,2.59,29.22.89,43.7-.74,6.25-2.65,22.18-9.49,24.86-12.66,5-23.29-22.52-27.28-30.56-17.31-34.91-25.52-72.18-35.21-109.66-3.63-14-7-28.21-10-42.47,4.46,30.77,7.9,61.42,16,92,6.08,22.83,11.64,47.22,22.35,68.39,7.62,15.05,16.77,29.5,23.44,45,8.19,19.07,15.54,82.67-28.77,51.18-39.69-28.2-61.85-64.31-81.59-107.46a434.67,434.67,0,0,1-30.07-90.48c7.44,53,24.72,102.12,55.13,148,12,18.15,25.72,35.61,42.44,49.67,10.6,8.9,51.9,32.09,31.72,49.65-17.76,15.45-70.32,4.53-90.69.54,34.29,12.23,75.21,21.68,123.66,24.88l26-85.74S1736.07,357.07,1693.06,254.13Z" transform="translate(-28.22 -121.17)"/><path class="cls-38" d="M2594.3,247.75s16.39,5.11,39.59,38.76,198.88,380.83,198.88,380.83-75.89,108.93-267.05,121.58l-26-85.74S2548.84,341.94,2594.3,247.75Z" transform="translate(-28.22 -121.17)"/><g class="cls-39"><path class="cls-40" d="M2825.74,665.88S2703,420.36,2678.62,376.31s-57.15-103.09-75-105.9-10.3,11.24-11.24,43.11-19.68,174.31-1.87,194.92,37.49,0,45-23.43,15.93-29.05,12.18,5.63-16.86,70.28,14.05,99.32S2731.1,708,2739.53,722.09,2802.32,702.42,2825.74,665.88Z" transform="translate(-28.22 -121.17)"/></g><path class="cls-41" d="M2592.6,251.48c-10.1,50.2-1.64,103.51-4.06,154.25-1.56,32.95-2.47,65.89-6.58,98.63-2.79,22.24-6.46,46.13,2,67.57,1.26,3.22,4.72,4.27,7.42,2,48-41,44.57-111,59.21-168.69,11.93,75.61-14.12,150.73-33.75,223.25-2.85,10.53-31.06,82.17-5.16,79.53,13.84-1.4,23.72-15,31.63-25.13,12.54-16,23.14-33.68,33.18-51.34,24.68-43.45,28.59-96.3,54.11-138.85,8.6,60.51-20.65,121.7-50.72,172.52-12.71,21.47-29.68,41.75-40.88,63.91-5.29,10.48-6.41,20,5.72,25.19,22.19,9.46,54.12-3.12,74.43-11.44,27.1-11.11,53.29-25.54,78.94-39.85-39.21,33-113.48,78.07-232.33,85.93l-26-85.74S2548.63,351,2592.6,251.48Z" transform="translate(-28.22 -121.17)"/><path class="cls-42" d="M2591.47,254.13c-16.09,65.82-21.2,133.82-22.6,201.43-.79,38.7-.59,77.42-.58,116.13,0,14.51-2.57,29.22-.87,43.7.74,6.25,2.65,22.18,9.49,24.86,12.65,5,23.29-22.52,27.28-30.56,17.3-34.91,25.52-72.18,35.2-109.66,3.63-14,7.05-28.21,10-42.47-4.46,30.77-7.88,61.42-16,92-6.08,22.83-11.65,47.22-22.35,68.39-7.62,15.05-16.77,29.5-23.44,45-8.19,19.07-15.54,82.67,28.76,51.18,39.7-28.2,61.84-64.31,81.6-107.46A435.85,435.85,0,0,0,2728,516.19c-7.46,53-24.72,102.12-55.13,148-12,18.15-25.74,35.61-42.46,49.67-10.6,8.9-51.9,32.09-31.7,49.65,17.76,15.45,70.31,4.53,90.68.54-34.28,12.23-75.2,21.68-123.65,24.88l-26-85.74S2548.47,357.07,2591.47,254.13Z" transform="translate(-28.22 -121.17)"/><path class="cls-43" d="M2596.33,246.52l-300.57-123.7s-50.83,40.06-150.64,36.55c-99.8,3.51-151.57-36.55-151.57-36.55L1693,246.52s52.47,404.82,52.47,611S1693,1518.15,1693,1518.15c214.59,54.36,451.67,55.29,451.67,55.29s237.09-.93,451.68-55.29c0,0-52.48-454.48-52.48-660.65S2596.33,246.52,2596.33,246.52Z" transform="translate(-28.22 -121.17)"/><path class="cls-44" d="M2596.33,246.52l-109.38-45c9.47,10.5,40.59,26.93,51.29,36.11,39.35,33.73,18.13,59.24,2.81,149-27.17,159.3-64.31,235.13-67.47,261.45-16.86,140.57,9.51,184.09-118.07,410.45-24.44,43.38-44.85,86.66-64.66,132.13-14.71,33.75-67.66,105.27-7.58,87.09,48.94-14.8,44.53,12.38,27.67,52.14-13.9,32.73-36.29,61.48-59.52,88.1-63.82,73.15-151.9,117.78-225,26.78-17.34-21.59-93.79-118.58-69.14-149.19,20-24.78,55.76,24.76,75,3.78,14.8-16.16-25.4-67.22-47.87-100.27-47.78-70.28-103.34-116.74-171.48-365.46-19.19-70.07-8.43-213.65-39.36-253-42.47-54.06-35-136.68-42.16-177.11-28.12-157.43,19.67-165.86,80.73-206.26-39.09,17.52-79.7,33.06-119.16,49.3,21.54,161.92,38.46,325,48.14,488.09C1752.9,933,1733,1132,1713,1329.29c-6.35,62.78-10.69,126.33-20.47,188.71,146.09,37.59,301.26,55.44,452.12,55.44,0,0,237.09-.93,451.68-55.29,0,0-52.48-454.48-52.48-660.65S2596.33,246.52,2596.33,246.52Z" transform="translate(-28.22 -121.17)"/><path class="cls-45" d="M2591.23,287.34c-15,60.42-22.27,122.25-28.76,184.56-4,38.67-10,77.23-12.85,116-1.41,18.94-1.83,38.4-6.1,57-2.45,10.62-6.64,27.82-18.93,31.52-15.77,4.71-30.65-9.73-40.09-20.51-37.66-43-46.4-33-26.8,24.28,20.59,60.25,28.81,121.29,12.27,183.74-17.8,67.19-50.16,132.31-82.84,193.41-16.67,31.19-35.21,61.15-54.75,90.62-15.13,22.82-33.94,44.57-43.89,70.24,47.53-41.89,92.66-87.48,127.85-140.35,29.3-44,48.6-96.22,88.78-132.1a4.53,4.53,0,0,1,7,.9c20.8,30.22.55,75.34-10.6,105.44-17.28,46.71-30.16,94.41-51.7,139.58-24.67,51.72-54.46,101.07-91.38,145-29.63,35.3-62,68.08-94,101.23,53.59-31.29,104.9-66.83,146.4-113.49,26.37-29.64,50.42-61.35,70.76-95.45,12-20.19,21-45.56,41.27-59,2.19-1.46,4.68-.26,6.07,1.57,29.57,39.14,6.3,96.87-12,135.76-23.92,50.89-52.84,104-92.51,144.37-77.75,79.06-209.14,139.21-322,109-45.54.37-90.56-15.05-133.91-32.81-49.57-20.32-91.65-57.48-123.06-100.39-29.82-40.73-54.26-87.11-73.07-134-15.72-39.19-25.57-108.46-13.94-129.44,1.28-2.33,5.29-3.06,7-.91,34.68,44.76,52.56,99.39,85.75,144.94,35.3,48.44,77.16,93.48,126,128.64-34-77.35-91.56-142.09-133.45-215.1-33.1-57.7-75.3-125.71-63.18-195.2.56-3.29,5.28-4.27,7.42-2,49.91,54.06,91.67,115.17,142.47,168.43,41,43,89.71,72.81,141.4,100.24-96-117.58-209-230.9-262.48-378.5-27.35-75.4-38.59-93.67-14.7-200.5,13.83-61.77,21.29-116.62,9.85-84.34-5,14.15-23.18,90.82-43.58,74.5-7-5.62-12.82-50.65-15.15-67.28-3.65-26.12-4.06-52.64-8.34-78.66-6.36-38.63-11.71-77.39-16.78-116.21-7.16-54.72-5.52-118.45-24.71-172.16,11.08,89.17,49.51,411.08,49.51,587.52,0,206.17-52.47,660.65-52.47,660.65,214.59,54.36,451.67,55.29,451.67,55.29s237.09-.93,451.68-55.29c0,0-52.48-454.48-52.48-660.65C2543.85,691.07,2578.05,395.19,2591.23,287.34Z" transform="translate(-28.22 -121.17)"/><path class="cls-46" d="M2573.56,442q3.32-30.85,6.74-61.7c-10.38,86.12-28.36,173-32,259.67-.79,18.83,4.54,92.74-24.56,95-25.8,2-53-64.82-62.77-82.34,26.43,67.79,42.31,132.42,25.62,204.89-15.86,68.87-48,135.1-82.06,196.65-19.49,35.24-41.07,69.24-62.83,103.08,42.7-40.08,79.06-89.75,102.86-142.75,12.65-28.18,26.23-53.7,37.48-82.47,7.44-19,22.15-45.13,26.23-65.6,9.38-46.84,17.29,22.35,19.22,42.86,2.61,27.48-1.67,55.36-7.35,82.2a153.51,153.51,0,0,1-4.62,21c-19.3,66.87-33.91,133.09-65.13,196-41.94,84.53-112,153-176.92,220.06,14.22-14.71,34.26-22.55,50-35.51,36.37-29.91,84.48-87.53,111.71-125.58,28.51-39.82,45.24-75.49,61.83-121.8,5.72-15.91,22.51-50.62,27.64-64.77,7.79-21.51,32.3,32.95,33.53,48.2-13.41-166.57-17.67-330.55-3.36-497.26,4.23-49.37,9.3-98.65,14.35-148Q2571.3,462.93,2573.56,442Z" transform="translate(-28.22 -121.17)"/><path class="cls-47" d="M1900.43,1556c-58.28-24.76-110.61-67.38-132.43-123-20.81-53.07-29.7-118.34-29.82-175.09,0-25.21,1.25-51.12,3.25-76.28,1-12.23,1.94-57.22,21.7-49.08,16.81,6.93,26.38,44.14,33.75,59,36,72.67,86.66,152,148.18,207.1-20-18-52.73-62.88-66.06-85.74-48.15-82.53-94.75-150.76-114.25-245.86-4.34-21.13-4.23-44.57-4.38-66A179.32,179.32,0,0,1,1763,970.8c1.19-7.2,8.79-35.71,14.89-13.26,12.89,47.35,54.11,88.89,82.86,127.54,44.75,60.13,95.07,108.18,150.12,158.4,14.1,12.86,28.23,25.91,43.29,37.65-33.13-25.86-62-61.69-90.21-92.67C1895,1112.82,1828.73,1030,1790,934.3c0-.07-.09-.11-.12-.17-.2-.5-.39-1-.57-1.49-.13-.27-.25-.53-.35-.8s-.18-.5-.27-.74c-18.28-45.57-27.83-99.56-17.77-147.87s26.4-96.1,33.76-145c-3.09,6.62-6.14,13.27-9,20-2.39,7.31-5.09,15-8.09,22.11-7.52,25.61-9,53.87-25.25,75.82-2.12,2.86-7.15,3-8.11-1.05-5.8-24.82-6.44-50-8.82-75.26-2.82-29.85-6.83-59.59-9.65-89.45-3.11-32.78-4.34-65.94-11.69-98.13-1.78-7.79-3.65-15.57-5.53-23.33,13.32,128.07,26.84,283.89,26.84,388.53,0,206.17-52.47,660.65-52.47,660.65C1762.73,1535.82,1834.84,1547.83,1900.43,1556Z" transform="translate(-28.22 -121.17)"/><path class="cls-48" d="M2221.76,1570.62c18.94-1.41,41.13-3.33,64.19-6.16a4.11,4.11,0,0,0-3.72-1.18C2262.14,1566.78,2242,1569.12,2221.76,1570.62Z" transform="translate(-28.22 -121.17)"/><path class="cls-49" d="M2339.66,142l-46.54-19.15s-50.83,40.06-150.62,36.55c-99.81,3.51-151.58-36.55-151.58-36.55l-50,20.59c29.42,23.46,92.91,60.44,201.11,60.75C2244.87,204.43,2307.06,169.1,2339.66,142Z" transform="translate(-28.22 -121.17)"/><path class="cls-31" d="M1940.9,143.41s1.37.93,3.93,2.7,6.24,4.51,11.19,7.54l8.26,4.91a96.79,96.79,0,0,0,9.88,5.43c7.28,3.49,15.27,7.86,24.6,11.27,4.62,1.82,9.41,3.74,14.38,5.7,5.09,1.56,10.4,3.16,15.82,4.81,10.73,3.76,22.64,5.47,34.66,8.35,6,1.57,12.3,2,18.62,2.92l19.15,2.46c13,.92,26.18,1.16,39.36,1.78,13-.32,26.53-.74,39.48-1.45l19.08-2.39c6.29-.82,12.56-1.38,18.55-3,12.06-2.73,23.88-4.75,34.6-8.54,5.39-1.72,10.76-3.13,15.75-5l14.3-5.85,6.73-2.76,6.18-3.17c4-2,7.87-4,11.47-5.78,7.07-3.89,12.92-7.83,17.91-10.79L2339.66,142l-3.69,3c-2.45,1.94-5.88,5-10.54,8.48-4.86,3.22-10.56,7.46-17.48,11.7l-11.28,6.39-6.14,3.41c-2.19,1-4.43,2-6.72,3l-14.31,6.36c-5,2-10.37,3.62-15.79,5.53-10.77,4.15-22.65,6.63-34.9,9.42-6.06,1.65-12.44,2.29-18.86,3.19s-12.91,1.74-19.47,2.62c-13.14.83-26.22,1.38-39.75,1.82-13.36-.76-26.73-1.12-39.83-2.19L2081.5,202c-6.37-.95-12.74-1.49-18.82-3.13-12.19-3-24.15-5.11-34.93-9.24l-15.86-5.31q-7.46-3.21-14.36-6.2c-9.36-3.65-17.23-8.47-24.37-12.32a100.78,100.78,0,0,1-9.71-6l-8-5.33c-4.85-3.23-8.25-6.32-10.75-8.17S1940.9,143.41,1940.9,143.41Z" transform="translate(-28.22 -121.17)"/><path class="cls-31" d="M2293.12,122.82a116,116,0,0,1-16.47,10.86,190.84,190.84,0,0,1-17.76,8.72c-3,1.39-6.14,2.48-9.21,3.66s-6.23,2.23-9.37,3.22c-6.27,2.17-12.69,3.74-19.09,5.45l-9.69,2.11c-3.22.79-6.52,1.16-9.78,1.69s-6.53,1.1-9.83,1.42l-9.87,1c-6.58.77-13.22.78-19.81,1.19-3.31.17-6.62,0-9.92.06l-9.93,0h.2l-10,0c-3.32,0-6.63.11-10-.05-6.64-.43-13.3-.43-19.91-1.22l-9.93-1c-3.31-.34-6.59-1-9.88-1.44s-6.59-.92-9.84-1.67l-9.74-2.14c-6.44-1.71-12.91-3.29-19.2-5.45-3.17-1-6.33-2-9.42-3.24s-6.25-2.27-9.27-3.64a195.68,195.68,0,0,1-17.89-8.72,117.34,117.34,0,0,1-16.63-10.82c2.73,1.83,5.61,3.47,8.51,5s5.81,3.09,8.81,4.47a190.74,190.74,0,0,0,18.21,7.48c6.16,2.25,12.37,4.37,18.71,6.05,6.28,1.88,12.72,3.19,19.1,4.63,6.47,1.09,12.87,2.44,19.37,3.23,3.24.41,6.47,1,9.73,1.27l9.79.87c6.5.7,13.07.6,19.6.94,3.27.12,6.55-.06,9.83-.07l9.81-.15h.2l9.77.15c3.25,0,6.52.19,9.76.08,6.5-.33,13-.25,19.51-.92l9.72-.87c3.25-.27,6.45-.86,9.67-1.26,6.48-.8,12.85-2.1,19.28-3.21,6.34-1.44,12.74-2.73,19-4.62,6.3-1.67,12.47-3.8,18.6-6a189.72,189.72,0,0,0,18.08-7.51c3-1.37,5.87-2.91,8.74-4.48A95.76,95.76,0,0,0,2293.12,122.82Z" transform="translate(-28.22 -121.17)"/><g class="cls-50"><path class="cls-51" d="M1981.6,1151.29c-115.09-226.81-146.18-292.38-168.67-452.62s-42.17-129.32-64.66-210.84-42.17-132.13-50.6-222.1c0,0,47.79-33.73,118.07-61.85s90-47.79,137.76-16.87,243.75,70.2,348.59-8.43c33.74-25.3,47.8-11.24,95.59,2.81s165.86,75.9,165.86,75.9-11.24,84.34-45,179.93c-30.63,86.84-53.4,163-87.14,295.18s-47.8,247.39-174.29,413.25S2077.19,1339.63,1981.6,1151.29Z" transform="translate(-28.22 -121.17)"/></g><path class="cls-32" d="M2143.91,1577.48h0c-2.37,0-239.89-1.56-452.37-55.38a2.8,2.8,0,0,1-2.1-3c.52-4.55,52.47-456.67,52.47-660.31,0-32.27-1.31-71.52-3.9-116.82l-14.51,47.82a2.75,2.75,0,0,1-2.87,2c-190.3-12.59-268.43-121.69-269.19-122.79a2.81,2.81,0,0,1-.2-2.88c7.17-14.17,176.06-347.73,199.09-381.15,23.48-34.05,40.36-39.62,41.07-39.84l300.34-123.61a2.79,2.79,0,0,1,2.78.37c.5.39,52.36,39.5,149.78,36,4.34.15,8.41.22,12.42.22,89.46,0,136.1-35.8,136.57-36.17a2.81,2.81,0,0,1,2.81-.38l300.57,123.69c.47.14,17.36,5.71,40.84,39.76,23,33.42,191.92,367,199.09,381.15a2.81,2.81,0,0,1-.2,2.88c-.78,1.1-78.89,110.2-269.2,122.79a2.75,2.75,0,0,1-2.88-2l-14.49-47.82c-2.59,45.3-3.9,84.55-3.9,116.82,0,203.64,51.93,655.76,52.47,660.31a2.81,2.81,0,0,1-2.1,3C2383.8,1575.92,2146.28,1577.47,2143.91,1577.48Zm-448.63-60.22c210.89,53,445.61,54.59,448.62,54.6s237.72-1.62,448.6-54.6c-4.13-36.32-52.21-462.35-52.21-658.51,0-36.06,1.62-80.75,4.83-132.87a2.82,2.82,0,0,1,2.48-2.62,2.76,2.76,0,0,1,3,2L2569,786c174.49-12.3,252.27-106.55,261.73-118.9-12.82-25.31-175.88-347-197.91-379-22.17-32.14-38-37.62-38.13-37.67L2295.41,127.26c-8.79,6.36-59.21,39.33-151.13,36.16-4,.14-8.18.21-12.24.21-84.36,0-131.19-30.36-139.64-36.37L1693.29,250.35c-.38.13-16.18,5.61-38.35,37.75-22,31.95-185.1,353.65-197.92,379,9.47,12.35,87.23,106.6,261.74,118.9l18.42-60.72a2.81,2.81,0,0,1,5.5.64c3.2,52.12,4.83,96.81,4.83,132.87C1747.51,1054.91,1699.43,1480.94,1695.28,1517.26Z" transform="translate(-28.22 -121.17)"/></g></g></g></svg>