<svg id="Camada_1" data-name="Camada 1" xmlns="http://www.w3.org/2000/svg" viewBox="0 0 821.91 1021"><defs><style>.cls-1{fill:#2310dd;}.cls-2{fill:#6b6b6b;}.cls-3{fill:#070707;}.cls-4{fill:#0825f9;}.cls-5{fill:#0a0a0a;}.cls-6{fill:#47cc09;}.cls-7{fill:#47ba0c;}.cls-8{fill:#a9a9a9;}.cls-9{fill:#555;}.cls-10{fill:#c90a0a;}</style></defs><path class="cls-1" d="M828.77,482.88s.25,19.46,1,26.78,6.31,15.92,38.1,15.41,73.93-14.4,83.52-18.69,10.61-6.32,8.46-20a277.34,277.34,0,0,1-2.65-29.3C940.55,470.51,869.4,494,828.77,482.88Z" transform="translate(-139.83 -29)"/><path class="cls-2" d="M865.25,526c-23.69,0-35.26-5.18-36.41-16.28-.75-7.29-1-26.07-1-26.86l0-1.26L829,482a93.24,93.24,0,0,0,24.45,2.87c38.66,0,89.22-17.26,103.15-28.46l1.47-1.18.06,1.89a278.94,278.94,0,0,0,2.64,29.18c2.19,13.9,1.1,16.45-9,21-8.55,3.83-51.26,18.26-83.89,18.78Zm-35.52-41.93c.07,4.41.35,19.32,1,25.46.66,6.43,5.2,15.06,37.15,14.56,32.34-.52,74.67-14.82,83.15-18.61,8.9-4,10-5.45,7.91-18.95A272.16,272.16,0,0,1,956.34,459c-16.13,11.58-64.42,27.77-102.87,27.77A97.28,97.28,0,0,1,829.73,484.11Z" transform="translate(-139.83 -29)"/><path class="cls-3" d="M951.65,474.81c-9.33,3.53-46.17,14.4-91.08,17.43-18.17,1.25-35.2,6.18-36.59-20.84a155,155,0,0,0-3.64-25.51,76.47,76.47,0,0,0-2.56-8.69,31.7,31.7,0,0,1-4.14-3.68c-4.5-4.74-5.77-9-9.84-11-5.91-2.88,8.44-101.81,19-128.34S858.09,192,875.29,176.4a84.54,84.54,0,0,0,15.94,16.87c10.6,8.72,21.81,19.07,35.7,48.63s15.64,51.27,17.67,67.19c.75,6,2,16,3.48,26.85,2.39,18.07,5.17,38.42,6.6,46.15.27,1.44.5,3.35.7,5.61,1.54,17,1.57,53.84,3.34,62.1C960.74,459.13,961,471.26,951.65,474.81Z" transform="translate(-139.83 -29)"/><path class="cls-2" d="M844.08,494.35c-10.32,0-20-2.78-21.05-22.91a153,153,0,0,0-3.6-25.33,77.63,77.63,0,0,0-2.44-8.32,33.89,33.89,0,0,1-4-3.62,46.55,46.55,0,0,1-4.28-5.4c-1.7-2.41-3-4.31-5.29-5.4-7.13-3.49,8.9-105.29,18.59-129.54,2.27-5.68,5.18-13.6,8.54-22.77,12.13-33,30.46-82.95,44.14-95.36l.82-.74.6.93a85.41,85.41,0,0,0,15.76,16.65c11.13,9.16,22.25,19.79,35.95,49,12.82,27.3,15.39,48.23,17.26,63.5.17,1.37.33,2.69.49,4,.76,6,2,16,3.48,26.85,3.22,24.32,5.44,39.83,6.6,46.1.26,1.4.49,3.27.71,5.7.69,7.62,1.08,19.2,1.45,30.39.47,13.93.91,27.1,1.87,31.59,1.73,8,3,22-7.66,26.09-9.44,3.57-46.48,14.46-91.35,17.49-2,.14-4,.32-5.91.5C851,494,847.44,494.35,844.08,494.35Zm31.06-316.5c-13.26,13.26-31,61.64-42.86,93.86-3.37,9.19-6.28,17.12-8.56,22.83C813,321.29,799.66,417.71,804.24,421.69c2.65,1.28,4.19,3.46,6,6a44.86,44.86,0,0,0,4.11,5.19,32,32,0,0,0,4,3.58l.23.17.09.26a78.44,78.44,0,0,1,2.59,8.79,154.63,154.63,0,0,1,3.66,25.67c.9,17.53,8.31,21.12,19.16,21.12,3.27,0,6.77-.32,10.46-.66,2-.18,4-.37,6-.51,44.64-3,81.45-13.82,90.82-17.37s8.08-16.51,6.48-23.92c-1-4.66-1.44-17.9-1.91-31.93-.38-11.16-.77-22.71-1.45-30.28-.21-2.38-.44-4.18-.69-5.52-1.16-6.3-3.38-21.85-6.61-46.2-1.44-10.86-2.72-20.89-3.48-26.87-.16-1.28-.33-2.61-.49-4-1.86-15.15-4.4-35.89-17.1-62.92C912.54,213.49,901.59,203,890.63,194A89.4,89.4,0,0,1,875.14,177.85Z" transform="translate(-139.83 -29)"/><path class="cls-4" d="M143.7,478.34s-3.94,27.12-2.68,39.12c.13,3.92,18.58,17,52.14,25.29s60.68,3.79,64.59,0,4.92-11.59,10.47-29.86C255.35,514.59,184.7,505.62,143.7,478.34Z" transform="translate(-139.83 -29)"/><path class="cls-4" d="M230.37,548.39a157.87,157.87,0,0,1-37.44-4.72c-31.52-7.83-52.68-20.94-52.85-26.18-1.26-11.91,2.52-38.18,2.69-39.29l.21-1.47,1.24.82c37,24.64,100,34.6,120,34.6a32.37,32.37,0,0,0,3.85-.19l1.45-.19-.42,1.4c-1.61,5.27-2.85,9.75-3.85,13.35-2.6,9.35-3.91,14-6.87,16.91C255.86,545.9,245.42,548.39,230.37,548.39ZM144.43,480c-.79,5.8-3.54,27.26-2.47,37.41.09,2.8,16.29,15.75,51.42,24.48a156.22,156.22,0,0,0,37,4.67c15.28,0,24.83-2.6,26.72-4.44,2.6-2.51,3.86-7,6.37-16.05.92-3.31,2-7.34,3.45-12.06-.77,0-1.67.08-2.66.08C246.85,514,184.06,505.62,144.43,480Z" transform="translate(-139.83 -29)"/><path class="cls-3" d="M301.48,429.65s-1.34,11.18-14.39,25a20.72,20.72,0,0,0-2.25,6.55c-1.31,5.7-2.53,14.11-5.14,24.33a125.42,125.42,0,0,1-3.89,12.38h0c-3.6,9.7-7.56,17.19-8.78,20.58-1.32,2.65-9.45,4.17-30.46,1.9s-66.12-9.73-90.84-31.95c-5.8-5.07-6.18-11.75-1.4-27S158.59,368,159.84,346.48c.17-2.73.34-5.67.52-8.77.51-9.24,1.16-19.85,2.18-30.19,1.32-13.53,3.27-26.55,6.39-35.31,6.31-17.69,10.22-37.77,31-62,10.22-12.88,16.79-20.46,23.09-22s16.61-6.17,21.14-8.46C255.48,189.86,310.24,354.31,301.48,429.65Z" transform="translate(-139.83 -29)"/><path class="cls-3" d="M284.84,461.21c-1.31,5.7-2.53,14.11-5.14,24.33a125.42,125.42,0,0,1-3.89,12.38h0c-7.6,2.53-16.85,7-25.86,10,.65-.58,21.71-19.25,22.95-22.72A53.51,53.51,0,0,1,256.52,481s14.76.95,21.39-8.34c-7.38-2.27-18.9.64-29.74.38,0,0,10.08-2.77,20.06-5.56A90.58,90.58,0,0,0,284.84,461.21Z" transform="translate(-139.83 -29)"/><path class="cls-3" d="M176.94,343.82c-7.88-2.66-11.67-5.18-16.58-6.11.51-9.24,1.16-19.85,2.18-30.19,6,9.29,18.68,27.71,32.38,39-11-5.31-27.25-18.57-27.25-18.57A51.7,51.7,0,0,0,176.94,343.82Z" transform="translate(-139.83 -29)"/><path class="cls-3" d="M253.78,522.45a166.34,166.34,0,0,1-17.33-1.11c-19-2.06-65.9-9.31-91.36-32.19-6.13-5.35-6.55-12.42-1.66-28,4.66-14.86,14.21-93.18,15.47-114.71l.52-8.76c.5-9.12,1.16-19.85,2.18-30.23,1.57-16.16,3.68-27.79,6.44-35.54,1.07-3,2.05-6,3.1-9.22,5-15.39,10.71-32.83,28.11-53.1,9.82-12.38,16.78-20.64,23.58-22.28,6-1.45,16-5.91,20.93-8.38l.57-.29.48.43c11.83,10.58,66.39,175.16,57.6,250.71-.06.48-1.52,11.65-14.63,25.55a20.64,20.64,0,0,0-2,6.11c-.47,2.06-.93,4.46-1.46,7.24-.9,4.72-2,10.59-3.68,17.11a128,128,0,0,1-3.92,12.48l-.25.61c-2.16,5.74-4.44,10.73-6.12,14.4-1.1,2.4-2,4.29-2.43,5.56C266.68,521.3,262.08,522.45,253.78,522.45ZM244,180.91c-5.16,2.55-14.78,6.79-20.73,8.22-6.21,1.49-13,9.54-22.57,21.65-17.17,20-22.8,37.25-27.77,52.47-1.05,3.22-2,6.25-3.11,9.28-2.71,7.6-4.79,19.08-6.34,35.08-1,10.35-1.67,21.05-2.18,30.16l-.52,8.76c-1.29,22.18-10.74,99.82-15.55,115.16-4.67,14.91-4.4,21.24,1.11,26.05,25.06,22.52,71.51,29.68,90.32,31.72a165.18,165.18,0,0,0,17.12,1.1c10.36,0,12.1-1.9,12.39-2.48.45-1.24,1.33-3.17,2.44-5.61,1.73-3.78,4.1-9,6.3-14.88l.24-.61a121.27,121.27,0,0,0,3.64-11.67c1.65-6.47,2.76-12.31,3.66-17,.53-2.79,1-5.21,1.47-7.3.74-3.38,1.48-5.5,2.39-6.86,12.74-13.53,14.22-24.49,14.23-24.6,5-43.22-11.06-111.94-21.1-149C265.93,230.5,249.89,187.6,244,180.91Z" transform="translate(-139.83 -29)"/><path class="cls-5" d="M836.85,281.68c-9.84,28-22,101.67-25.24,123.65-2.42,16.23-9,63.2-14.67,96.61-2,11.83-3.92,22-5.51,28.43-1.52,6.17-2.94,12-4.3,17.7-4.11,17-7.56,31.86-10.58,45.72a320.71,320.71,0,0,0-5.93,47.59c-.21,5.62,0,9.86.63,11.52,2.27,5.54-4.8,27.52-5.06,37.37,0,.55,0,1.09-.06,1.62-.35,9-1.64,15.52-.7,27.44,2,7,5,28.43,7.38,48.82,2.05,17.93,3.6,35.07,3.48,40.86.5,5.3,3,8.08,2.77,24.75,1.21,4.64,2.66,9.32,3.77,14.28a59.61,59.61,0,0,1,.77,25.13c2.44,31.14,4.18,82.49,4.68,108.68.1,6.31.15,11.15.12,13.9-.18,14.2-3.79,16.1-10.6,19.63s-33.69,15-72.67,23S591.2,1047.85,532.92,1049s-130.2-11-166.92-17-52.61-25.76-55.26-32.21c-1.79-4.33-2.19-12.44-1.57-23.29.28-5.28.83-11.19,1.57-17.63,2.27-19.7,12.11-140.7,15.14-163.69s7.07-57,4.66-65.93a30.76,30.76,0,0,1-.81-8.85c.24-7.44,2.36-15.17,4.22-18.25,2.65-4.35.3-6.58-.12-8.26-3.15-9.46-2.39-22.36-.21-27.8,0,0,0,0,0,0a7.49,7.49,0,0,1,.83-1.61c1.38-6.69.88-25.56-1.39-37.89-2.18-11.85-12.41-50.63-16.56-70.94-.17-.82-.32-1.61-.47-2.37-1.56-8-4.41-19.7-7.19-32.39-4-18.13-7.8-38.34-7.57-53.06-1.14-36.76-4.92-52.29-11-82.61s-45-165.2-51.47-180.36-4.92-20.08,0-22.35,56.77-28.8,91.59-47S411,90,411,90s255.23-4.67,266.84,2.91c42.13,26,103.71,48.24,134,57.34s60.93,20.08,64.72,28C881.89,197.18,846.69,253.64,836.85,281.68Z" transform="translate(-139.83 -29)"/><path class="cls-2" d="M525.1,1050c-55.57,0-121.45-10.89-156.84-16.74l-2.41-.4c-37.22-6.14-53.29-26.23-56-32.78-1.77-4.3-2.31-12.05-1.64-23.7.27-5.07.79-10.86,1.57-17.69,1-8.33,3.23-34.28,5.86-64.33C319.19,854,323.2,808.27,325,795c1.81-13.78,7.33-55.7,4.68-65.57a31.54,31.54,0,0,1-.85-9.12c.25-7.61,2.42-15.49,4.36-18.71,1.81-3,1-4.67.31-6.18a8.94,8.94,0,0,1-.54-1.36c-3.05-9.16-2.57-22.15-.24-28.21v-.76H333a7.47,7.47,0,0,1,.58-1.07c1.26-6.54.86-24.87-1.44-37.33-1-5.71-4-18-7.21-30.94-3.37-13.82-7.2-29.5-9.35-40l-.47-2.37c-.94-4.89-2.34-11-4-18.12-1-4.49-2.12-9.3-3.21-14.26-3.66-16.78-7.83-38-7.59-53.28-1-33.2-4.15-48.66-9.33-74.27l-1.63-8.13c-6-29.86-45.1-165.29-51.42-180.18-6-14-5.83-20.67.47-23.58,4.82-2.23,56-28.38,91.56-47,34.4-18,80.11-45.17,80.57-45.44l.21-.13H411c.78,0,78.59-1.43,149.41-1.43,111.09,0,116.26,3.38,118,4.49,42.48,26.22,104.06,48.31,133.75,57.22,40,12,62,21.63,65.3,28.54,3.65,13-10.13,41.11-23.46,68.31-6.64,13.55-12.91,26.35-16.24,35.85-9.63,27.43-21.45,98.43-25.2,123.48-.54,3.65-1.3,8.87-2.21,15.14-3.2,22.14-8,55.6-12.46,81.49-2.21,13-4.07,22.55-5.53,28.5-1.51,6.16-2.93,12-4.3,17.69-4.33,18-7.69,32.49-10.57,45.7a319.91,319.91,0,0,0-5.9,47.42c-.29,7.77.22,10.31.55,11.13,1.43,3.48-.37,12.09-2.27,21.21-1.29,6.14-2.61,12.49-2.72,16.55,0,.62,0,1.14-.06,1.65-.1,2.69-.3,5.2-.48,7.64a112.58,112.58,0,0,0-.22,19.57c2.16,7.62,5.22,30.21,7.37,48.88,2.23,19.45,3.6,35.54,3.49,41a30.27,30.27,0,0,0,.84,4.29c.89,3.64,2.1,8.62,1.93,20.33q.63,2.37,1.31,4.77c.84,3,1.71,6.17,2.44,9.41a60.84,60.84,0,0,1,.8,25.39c2.5,32.08,4.2,83.63,4.67,108.62.11,6.54.15,11.22.12,13.92-.19,14.8-4.3,16.93-11.1,20.46-7.21,3.75-34.36,15.21-72.92,23.08-39.37,8-116.25,9.53-172.38,10.63C530.35,1050,527.73,1050,525.1,1050ZM334.4,666.62c-1.94,5.18-2.75,17.67.32,26.9a6.72,6.72,0,0,0,.44,1.09c.77,1.64,1.93,4.13-.41,8-1.78,2.95-3.85,10.59-4.08,17.79a29.9,29.9,0,0,0,.78,8.57c1.85,6.89.34,28.58-4.64,66.3-1.74,13.24-5.74,59-9.27,99.29-2.63,30.07-4.9,56-5.86,64.39-.78,6.79-1.3,12.54-1.57,17.57-.64,11.21-.14,18.91,1.5,22.88,2.59,6.3,18.17,25.64,54.54,31.64l2.42.4c37,6.12,107.37,17.74,164.33,16.64,56.06-1.09,132.84-2.59,172-10.59,38.36-7.83,65.29-19.19,72.43-22.91,6.6-3.42,9.91-5.14,10.09-18.8,0-2.68,0-7.35-.13-13.87-.47-25-2.16-76.6-4.67-108.63v-.13l0-.12a59,59,0,0,0-.76-24.75c-.71-3.19-1.58-6.3-2.42-9.31-.46-1.66-.92-3.3-1.35-4.93l0-.13v-.13c.17-11.55-1-16.42-1.88-20a29.82,29.82,0,0,1-.89-4.67c.11-5.48-1.26-21.47-3.48-40.85-2-17.81-5.2-41.24-7.34-48.66l0-.19a117.54,117.54,0,0,1,.22-20c.18-2.41.37-4.91.48-7.58,0-.51,0-1,0-1.52.12-4.32,1.46-10.75,2.76-17,1.68-8,3.58-17.16,2.37-20.11-.69-1.71-.92-5.72-.69-11.91a324.51,324.51,0,0,1,5.94-47.76c2.89-13.22,6.26-27.75,10.59-45.73,1.36-5.65,2.79-11.53,4.3-17.71,1.45-5.9,3.3-15.44,5.5-28.36,4.42-25.87,9.26-59.31,12.46-81.44.91-6.27,1.66-11.49,2.21-15.15,3.75-25.09,15.6-96.25,25.28-123.82,3.37-9.61,9.66-22.46,16.33-36.07,12.56-25.62,26.79-54.67,23.39-66.81-2.91-6.07-25.69-15.85-64.09-27.39-29.77-8.94-91.54-31.1-134.21-57.43-2.94-1.92-25.59-4.2-117-4.2-68.79,0-144.19,1.33-149.12,1.42-3.46,2.06-47.22,28-80.45,45.37-35.61,18.6-86.8,44.77-91.64,47-3.43,1.59-6.52,4.67.47,21.13C246,219.32,285.25,355,291.23,384.94l1.63,8.12c5.19,25.71,8.33,41.23,9.36,74.64-.23,15.12,3.91,36.21,7.55,52.89,1.09,4.95,2.18,9.75,3.21,14.24,1.63,7.12,3,13.26,4,18.17l.46,2.36c2.14,10.46,6,26.11,9.34,39.93,3.17,13,6.17,25.27,7.23,31,2.35,12.78,2.73,31.72,1.39,38.25l-.17.37a6.64,6.64,0,0,0-.71,1.4Z" transform="translate(-139.83 -29)"/><path class="cls-6" d="M645.71,98.67c-16.28-6.07-55.26-7.4-101.44-7.58s-78.92-4.37-105.6,4.55c0,0,.95-6.14,2.53-14.68,2.72-14.62,7.33-36.27,12.23-45.95,3-4.73,5.8-5.19,10.6-5,7.57.38,82,2.59,110.14,1.44s52.05-2.74,55.44.29,10,21.89,12.51,28c1.26,3.09,2.16,13.21,2.75,22.37C645.43,90.77,645.71,98.67,645.71,98.67Z" transform="translate(-139.83 -29)"/><path class="cls-2" d="M646.7,100l-1.32-.49c-17-6.34-60.67-7.36-101.11-7.52-11.69,0-22.32-.34-32.61-.63-9.37-.26-18.22-.51-26.44-.51-14.53,0-31.38.67-46.25,5.64L437.5,97l.24-1.53c0-.06,1-6.25,2.53-14.7,3-15.79,7.47-36.63,12.32-46.21,3.3-5.15,6.4-5.7,11.47-5.56,5.56.28,54.38,1.77,88.18,1.77,9.2,0,16.56-.11,21.89-.33,4.36-.17,8.62-.36,12.71-.54,11.27-.49,21-.91,28.52-.91,8.88,0,13.33.59,14.88,2,2.67,2.36,6.62,12.31,10.77,23.19.8,2.07,1.48,3.86,2,5.1,1.08,2.64,2,10.27,2.83,22.67.55,8.67.83,16.6.83,16.68ZM485.22,89c8.25,0,17.11.24,26.49.51,10.28.28,20.9.58,32.57.62,41.59.17,82.43,1.16,100.43,7.18-.1-2.65-.36-8.74-.78-15.25-1-15.19-2-20.39-2.69-22.08-.5-1.25-1.19-3.05-2-5.14-2.89-7.55-7.72-20.2-10.26-22.45-.77-.69-3.76-1.51-13.63-1.51-7.48,0-17.19.43-28.43.92-4.1.18-8.36.36-12.72.53-5.35.22-12.74.34-22,.34-33.83,0-82.71-1.5-88.26-1.78h-1.2c-3.86,0-6,.66-8.55,4.63-4.71,9.29-9.18,29.94-12.1,45.62-1.1,6-1.91,10.79-2.28,13.12C454.6,89.64,471,89,485.22,89Z" transform="translate(-139.83 -29)"/><path d="M537.84,270.69S524,191,498.61,180.38c-17.55-23-57.16-30.18-59.94-45.84s-4.79-42.45-4.54-46.74,58.29-5.81,76.46-5,114.79,3.37,122.63,5,17.16,6.32,20.94,12.38-8.33,58.61-24.22,67.45C601.42,168.28,560.29,212.85,537.84,270.69Z" transform="translate(-139.83 -29)"/><path d="M537.49,274.19l-.58-3.34c-.14-.79-14.07-79.3-38.67-89.59l-.23-.1-.15-.2c-8.56-11.22-22.52-18.66-34.84-25.22-12.77-6.8-23.79-12.68-25.28-21-2.82-15.92-4.81-42.61-4.55-47,.07-1.22.19-3.27,24.37-4.85,14.38-.94,30.78-1.27,41.33-1.27,4.73,0,8.79.07,11.73.19,4.7.19,14.5.51,26.92.91,35.83,1.15,90,2.89,95.87,4.16,7.79,1.67,17.48,6.28,21.55,12.8,2,3.25.08,15.79-2.76,26.77-4.34,16.86-12.35,36.75-21.81,42l-.2.12H630c-28.63.66-69.56,46.62-91.25,102.47ZM499.2,179.61c22.76,9.91,36,72.44,39,87.68,22.48-55.84,62.24-99.7,91.51-100.6,8.84-5.14,16.48-24.35,20.7-40.71,3.56-13.83,4.2-23.35,3-25.3-3.76-6-13.18-10.42-20.34-12-5.73-1.23-61.95-3-95.54-4.11-12.42-.4-22.23-.72-26.93-.91-2.93-.13-7-.19-11.66-.19-27.64,0-61.31,1.95-63.83,4.48-.19,4.57,1.83,31.07,4.54,46.38,1.32,7.46,12,13.13,24.31,19.71S490.38,168.18,499.2,179.61Z" transform="translate(-139.83 -29)"/><path class="cls-7" d="M645.71,98.67c-16.28-6.07-55.26-7.4-101.44-7.58s-78.92-4.37-105.6,4.55c0,0,.95-6.14,2.53-14.68,8.3-2.27,24-4.62,53.11-3.89,53,1.32,95.38,1,111.28,1.71,12.09.58,28.25,1,39.28,3.23C645.43,90.77,645.71,98.67,645.71,98.67Z" transform="translate(-139.83 -29)"/><path class="cls-7" d="M646.7,100l-1.32-.49c-17-6.34-60.67-7.36-101.11-7.52-11.69,0-22.32-.34-32.61-.63-9.37-.26-18.22-.51-26.44-.51-14.53,0-31.38.67-46.25,5.64L437.5,97l.24-1.53c0-.06,1-6.25,2.53-14.7l.11-.58.57-.16c6.77-1.85,19.71-4.06,43-4.06,3.33,0,6.84,0,10.42.13,28.65.72,53.87.94,74.14,1.11,16.67.14,29.84.26,37.16.61l4.84.22c11.09.49,24.9,1.11,34.59,3l.71.14.05.73c.55,8.67.83,16.6.83,16.68ZM485.22,89c8.25,0,17.11.24,26.49.51,10.28.28,20.9.58,32.57.62,41.59.17,82.43,1.16,100.43,7.18-.1-2.55-.34-8.29-.73-14.52-9.51-1.78-22.84-2.38-33.6-2.86l-4.84-.22c-7.28-.34-20.44-.46-37.09-.6-20.27-.18-45.5-.4-74.16-1.11-3.57-.09-7.06-.13-10.38-.13-22.4,0-35.09,2.05-41.89,3.84-1,5.69-1.81,10.29-2.17,12.54C454.6,89.64,471,89,485.22,89Z" transform="translate(-139.83 -29)"/><path class="cls-6" d="M520.17,341.93a724.51,724.51,0,0,0-23.72-119.49c-12.36-43.95-15.14-58.22-15.39-59.11s22.33-1.89,23.72-1.39,5.05,6.34,12.87,20c6.82,11.88,21.18,61.13,26.83,84.81C542,280.92,520.17,341.93,520.17,341.93Z" transform="translate(-139.83 -29)"/><path class="cls-2" d="M519.64,346.22l-.41-4.2c-.05-.57-5.75-58.22-23.68-119.31-4.93-17.51-11.55-41.8-15.17-58.14-.13-.56-.19-.87-.22-1l-.13-.45.29-.43c1.16-1.53,21.58-1.84,21.79-1.84a9.82,9.82,0,0,1,3,.19c1.46.53,3.73,3.59,13.37,20.37,7,12.25,21.43,62,26.93,85.07l.05.18,0,.2C542.94,281,522,339.75,521.06,342.25ZM482.16,163.91l.06.25c3.61,16.3,10.23,40.55,15.14,58,15.23,51.86,21.66,101.26,23.3,115.54,4.81-13.59,20.65-58.8,22.86-71-5.37-22.43-19.87-72.5-26.69-84.37-3.51-6.12-10.83-18.85-12.38-19.54h0a18,18,0,0,0-2.34-.08A188.62,188.62,0,0,0,482.16,163.91Z" transform="translate(-139.83 -29)"/><path class="cls-6" d="M416.91,208s-5,2.56-7-2.93-10.79-49.55-12.68-75.31,2.33-34,13.81-42.69,15.65-18.7,24-31.58S451.2,33.56,457.36,31c-4.05,7.92-8.85,31.42-10,43.92s6.81,37.77,15.39,58.23,14.93,28.46,21.84,29.51c1.62-.15-2.92,6.1-8.34,10.4S440.87,197.31,416.91,208Z" transform="translate(-139.83 -29)"/><path class="cls-6" d="M414.31,209.52c-1.41,0-4-.54-5.29-4.15-2-5.58-10.82-49.45-12.73-75.56-2-26.54,2.8-34.88,14.18-43.52,8.7-6.6,13-13.78,18.52-22.87,1.63-2.7,3.31-5.49,5.23-8.46,6.2-9.59,15.18-21.68,22.78-24.83l2.37-1-1.17,2.29C454.39,38.88,449.5,62,448.32,75s7.52,39.17,15.32,57.77C471.71,152,478,160.7,484.76,161.73h0a1.15,1.15,0,0,1,1.06.78c.66,1.91-4.9,8.07-9,11.29-5.73,4.54-35.49,24.33-59.56,35A7.46,7.46,0,0,1,414.31,209.52ZM455.39,33.11c-5.34,3.4-12.05,11.22-19.59,22.87-1.9,3-3.58,5.73-5.2,8.42-5.37,8.89-10,16.58-19,23.4-11,8.37-15.34,16-13.44,41.87,1.86,25.38,10.68,69.69,12.62,75.05.71,2,1.86,2.91,3.52,2.91a5.58,5.58,0,0,0,2.17-.49c24-10.7,54.2-30.86,59.2-34.82a35.51,35.51,0,0,0,8.11-8.85c-7.27-1.57-13.67-10.36-21.89-30-7.88-18.8-16.66-45.45-15.46-58.67C447.43,63.87,451.45,43,455.39,33.11Z" transform="translate(-139.83 -29)"/><path class="cls-6" d="M514.33,346.8a3.37,3.37,0,0,0,2.94,3.86c9.23,1,33.85,3.88,36.46,4.34,3.22.57,4.54-.38,5.11-9.47s9.09-50.78,14.95-72.75,19.5-78.63,38.8-99.66c-6.44-2.46-21.51-15.09-33.12-1.45-6.74,7.92-16,24.76-25.36,40.29C548.29,221.65,524.66,281.09,514.33,346.8Z" transform="translate(-139.83 -29)"/><path class="cls-6" d="M555,356.08h0a8.49,8.49,0,0,1-1.43-.15c-2.63-.46-28.53-3.43-36.41-4.33a4.31,4.31,0,0,1-3.76-5c10.23-65.07,33.81-125,39.9-135.18,2.14-3.56,4.28-7.19,6.39-10.77,7.1-12.07,13.82-23.48,19.06-29.64,3.71-4.36,8.17-6.57,13.27-6.57,6.23,0,12.26,3.26,16.66,5.64a42.06,42.06,0,0,0,4.25,2.11l1.29.5-.94,1c-17.58,19.15-30.69,69.21-37,93.27-.57,2.2-1.1,4.21-1.57,6-5.71,21.37-14.35,63.42-14.93,72.57C559.35,352.54,558.49,356.08,555,356.08Zm37-189.7c-4.58,0-8.45,1.93-11.83,5.9-5.14,6-11.81,17.38-18.88,29.38-2.1,3.58-4.25,7.22-6.39,10.79-6,10.07-29.47,69.67-39.65,134.49a2.41,2.41,0,0,0,2.11,2.78c10.11,1.16,33.9,3.89,36.52,4.35a6.47,6.47,0,0,0,1.1.12h0c1.29,0,2.4-.66,2.9-8.72.58-9.23,9.26-51.49,15-72.94.48-1.78,1-3.79,1.58-6,6.24-23.8,19.11-72.91,36.56-93.07-1-.46-2-1-3.23-1.68C603.56,169.51,597.77,166.38,592,166.38Z" transform="translate(-139.83 -29)"/><path class="cls-6" d="M682.51,92.22C671.82,86.64,660,70.69,654.86,63.14c-5-7-17-24.34-19.28-27.28a15,15,0,0,0-9.13-5.29c1.75,4.06,13.33,39.3,5.51,77.69-7,34.56-16.23,50.09-25.17,60.21a4.57,4.57,0,0,0,.32,6.4,166.83,166.83,0,0,0,66.1,36.84c4.42.88,7.32-1,10-8.21s13.43-39.85,13.25-75.66C695.86,105.68,693.21,97.81,682.51,92.22Z" transform="translate(-139.83 -29)"/><path class="cls-2" d="M675.09,212.86h0a11,11,0,0,1-2.06-.22,167.71,167.71,0,0,1-66.56-37.07,5.46,5.46,0,0,1-1.45-2.22,5.52,5.52,0,0,1,1.07-5.5c7.73-8.76,17.55-23.47,24.94-59.77,7.34-36-2.59-70.53-5.45-77.14l-.65-1.51,1.63.2a16.11,16.11,0,0,1,9.77,5.65c1.44,1.86,6.64,9.28,11.66,16.46,2.94,4.2,5.78,8.24,7.64,10.86,4.65,6.8,16.61,23.19,27.32,28.79s13.83,13.44,14.42,36.43c.2,38.18-11.92,72.25-13.31,76C681.73,210.15,679.05,212.86,675.09,212.86ZM628,31.86c3.49,9.63,11.86,42.47,4.91,76.59-7.49,36.75-17.5,51.72-25.38,60.65a3.63,3.63,0,0,0,.25,5.08,165.57,165.57,0,0,0,65.71,36.62,8.44,8.44,0,0,0,1.63.17c2.25,0,4.68-.95,7.2-7.8,1.37-3.72,13.39-37.5,13.19-75.32-.57-22.37-3.33-29.52-13.4-34.79-11.09-5.79-23.27-22.48-28-29.38-1.85-2.6-4.69-6.65-7.63-10.86-5-7.16-10.2-14.56-11.61-16.38A14.56,14.56,0,0,0,628,31.86Z" transform="translate(-139.83 -29)"/><path class="cls-8" d="M530.65,255.87a8.2,8.2,0,1,1-8.18-7.63A7.92,7.92,0,0,1,530.65,255.87Z" transform="translate(-139.83 -29)"/><path class="cls-9" d="M522.47,264.44a8.59,8.59,0,1,1,9.12-8.57A8.87,8.87,0,0,1,522.47,264.44Zm0-15.25a6.7,6.7,0,1,0,7.23,6.68A7,7,0,0,0,522.47,249.19Z" transform="translate(-139.83 -29)"/><path class="cls-8" d="M501.91,189.6c-1.76,2.14-6.09,1.48-9.67-1.48s-5.05-7.07-3.3-9.21,6.09-1.48,9.67,1.47S503.66,187.46,501.91,189.6Z" transform="translate(-139.83 -29)"/><path class="cls-9" d="M498.81,191.8a11.84,11.84,0,0,1-7.17-3,12.7,12.7,0,0,1-3.94-5.32c-.74-2.07-.56-3.92.52-5.22,2-2.51,7.09-1.86,11,1.35a12.7,12.7,0,0,1,3.94,5.32,5.21,5.21,0,0,1-.52,5.22A4.76,4.76,0,0,1,498.81,191.8ZM492,178.6a3,3,0,0,0-2.36.91,3.43,3.43,0,0,0-.19,3.38,10.79,10.79,0,0,0,3.36,4.5,10,10,0,0,0,6,2.52,3,3,0,0,0,2.37-.91,3.43,3.43,0,0,0,.19-3.38,10.83,10.83,0,0,0-3.36-4.51A10.08,10.08,0,0,0,492,178.6Z" transform="translate(-139.83 -29)"/><path class="cls-10" d="M788.4,995.75c-.18,14.2-3.79,16.1-10.6,19.63s-33.69,15-72.67,23S591.2,1047.85,532.92,1049s-130.2-11-166.92-17-52.61-25.76-55.26-32.21c-1.79-4.33-2.19-12.44-1.57-23.29,18,10.84,71.75,35.64,196.87,37.69C660,1016.65,737.68,1002,788.28,981.85,788.38,988.16,788.43,993,788.4,995.75Z" transform="translate(-139.83 -29)"/><path class="cls-2" d="M525.1,1050c-55.57,0-121.45-10.89-156.84-16.74l-2.41-.4c-37.22-6.14-53.29-26.23-56-32.78-1.77-4.3-2.31-12.05-1.64-23.7l.08-1.57,1.34.81c17.62,10.61,72,35.52,196.41,37.56,11.46.19,22.74.28,33.55.28,113.74,0,192.65-10.32,248.32-32.48l1.27-.51,0,1.37c.11,6.54.15,11.22.12,13.92-.19,14.8-4.3,16.93-11.1,20.46-7.21,3.75-34.36,15.21-72.92,23.08-39.37,8-116.25,9.53-172.38,10.63C530.35,1050,527.73,1050,525.1,1050ZM310,978c-.51,10.37,0,17.54,1.58,21.33,2.59,6.3,18.17,25.64,54.54,31.64l2.42.4c37,6.12,107.37,17.74,164.33,16.64,56.06-1.09,132.84-2.59,172-10.59,38.36-7.83,65.29-19.19,72.43-22.91,6.6-3.42,9.91-5.14,10.09-18.8,0-2.49,0-6.69-.1-12.5-55.83,21.9-134.62,32.11-247.75,32.11-10.82,0-22.11-.1-33.58-.28C384.17,1013.07,329.1,989.12,310,978Z" transform="translate(-139.83 -29)"/></svg>