<svg version="1.1" id="gola" xmlns="http://www.w3.org/2000/svg" xmlns:xlink="http://www.w3.org/1999/xlink" x="0px" y="0px"
	 viewBox="0 0 793.8 985" style="enable-background:new 0 0 793.8 985;" xml:space="preserve">
<style type="text/css">
	.st0{fill:#6FD13B;}
	.st1{fill:#6B6B6B;}
	.st2{fill:#1650B7;}
	.st3{fill:#CDCECC;}
	.st4{fill:#375B24;}
	.st5{fill:#CACACA;}
	.st6{fill:#A9A9A9;}
	.st7{fill:#555555;}
	.st8{fill:#FF0000;}
</style>
<path class="st0" d="M665.4,437.9c0,0,0.2,18.8,1,25.8c0.8,7.1,6.1,15.4,36.8,14.9s71.4-13.9,80.7-18s10.2-6.1,8.2-19.3
	c-1.4-9.4-2.2-18.8-2.6-28.3C773.4,425.9,704.7,448.6,665.4,437.9z"/>
<path class="st1" d="M700.7,479.5c-22.9,0-34.1-5-35.2-15.7c-0.7-7-1-25.1-1-25.9v-1.2l1.2,0.3c7.7,2,15.7,2.9,23.6,2.8
	c37.3,0,86.2-16.7,99.6-27.5l1.4-1.1l0.1,1.8c0.4,9.4,1.2,18.8,2.5,28.2c2.1,13.4,1.1,15.9-8.7,20.2c-8.3,3.7-49.5,17.6-81,18.1
	L700.7,479.5z M666.4,439.1c0.1,4.2,0.3,18.6,1,24.5c0.6,6.2,5,14.5,35.9,14c31.2-0.5,72.1-14.3,80.3-18c8.6-3.8,9.7-5.3,7.7-18.3
	c-1.3-8.8-2.1-17.7-2.5-26.6c-15.6,11.2-62.2,26.8-99.3,26.8C681.6,441.6,673.9,440.8,666.4,439.1L666.4,439.1z"/>
<path id="manga-direita" class="st2" d="M784.1,430.1c-9,3.4-44.6,13.9-88,16.8c-17.5,1.2-34,6-35.3-20.1
	c-0.5-8.3-1.7-16.5-3.5-24.6c-0.7-2.8-1.5-5.6-2.5-8.4c-1.4-1.1-2.8-2.3-4-3.5c-4.3-4.6-5.6-8.7-9.5-10.6
	c-5.7-2.8,8.2-98.2,18.4-123.8s34-98.6,50.7-113.6c4.4,6.1,9.5,11.6,15.4,16.3c10.2,8.4,21.1,18.4,34.5,46.9s15.1,49.5,17.1,64.8
	c0.7,5.8,2,15.4,3.4,25.9c2.3,17.4,5,37.1,6.4,44.5c0.3,1.4,0.5,3.2,0.7,5.4c1.5,16.4,1.5,51.9,3.2,59.9
	C792.8,415,793.1,426.7,784.1,430.1z"/>
<path class="st2" d="M680.2,448.9c-10,0-19.3-2.7-20.3-22.1c-0.5-8.2-1.6-16.4-3.5-24.4c-0.6-2.7-1.4-5.4-2.3-8
	c-1.4-1.1-2.7-2.2-3.9-3.5c-1.5-1.6-2.9-3.4-4.1-5.2c-1.6-2.3-2.9-4.1-5.1-5.2c-6.9-3.4,8.6-101.6,17.9-125c2.2-5.5,5-13.1,8.3-22
	c11.7-31.9,29.4-80,42.6-92l0.8-0.7l0.6,0.9c4.3,6,9.4,11.4,15.2,16.1c10.7,8.8,21.5,19.1,34.7,47.2c12.4,26.3,14.9,46.5,16.7,61.3
	c0.2,1.3,0.3,2.6,0.5,3.8c0.7,5.8,2,15.4,3.4,25.9c3.1,23.5,5.3,38.4,6.4,44.5c0.3,1.4,0.5,3.1,0.7,5.5c0.7,7.4,1,18.5,1.4,29.3
	c0.5,13.5,0.9,26.1,1.8,30.5c1.7,7.7,2.9,21.3-7.4,25.2c-9.1,3.5-44.9,14-88.2,16.9c-1.9,0.1-3.8,0.3-5.7,0.5
	C686.8,448.6,683.4,448.9,680.2,448.9z M710.2,143.6c-12.8,12.8-30,59.5-41.4,90.6c-3.3,8.9-6.1,16.5-8.3,22
	C650.2,282,637.3,375,641.7,378.8c2.5,1.2,4,3.4,5.8,5.8c1.2,1.8,2.5,3.4,4,5c1.2,1.3,2.5,2.4,3.9,3.5l0.2,0.2l0.1,0.3
	c1,2.8,1.8,5.6,2.5,8.5c1.9,8.1,3.1,16.4,3.5,24.8c0.9,16.9,8,20.4,18.5,20.4c3.2,0,6.5-0.3,10.1-0.6c1.9-0.2,3.8-0.4,5.8-0.5
	c43.1-2.9,78.7-13.3,87.7-16.8s7.8-15.9,6.3-23.1c-1-4.5-1.4-17.3-1.8-30.8c-0.4-10.8-0.7-21.9-1.4-29.2c-0.2-2.3-0.4-4-0.7-5.3
	c-1.1-6.1-3.3-21.1-6.4-44.6c-1.4-10.5-2.6-20.1-3.4-25.9c-0.2-1.2-0.3-2.5-0.5-3.8c-1.8-14.6-4.3-34.6-16.5-60.7
	c-13.1-27.8-23.7-37.9-34.2-46.6C719.5,154.6,714.5,149.4,710.2,143.6z"/>
<path class="st0" d="M3.7,433.5c0,0-3.8,26.2-2.6,37.8c0.1,3.8,17.9,16.4,50.3,24.4s58.6,3.7,62.4,0s4.8-11.2,10.1-28.8
	C111.6,468.5,43.3,459.8,3.7,433.5z"/>
<path class="st1" d="M87.5,501.1c-12.2-0.1-24.3-1.6-36.2-4.6c-30.4-7.5-50.9-20.2-51-25.3c-1.2-11.5,2.4-36.8,2.6-37.9l0.2-1.4
	l1.2,0.8c35.8,23.8,96.6,33.4,115.9,33.4c1.2,0,2.5,0,3.7-0.2l1.4-0.2l-0.4,1.4c-1.5,5.1-2.8,9.4-3.7,12.9c-2.5,9-3.8,13.5-6.6,16.3
	C112.1,498.7,102,501.1,87.5,501.1z M4.5,435.1c-0.8,5.6-3.4,26.3-2.4,36.1c0.1,2.7,15.7,15.2,49.7,23.6c11.7,2.9,23.7,4.4,35.7,4.5
	c14.7,0,24-2.5,25.8-4.3c2.5-2.4,3.7-6.8,6.1-15.5c0.9-3.2,2-7.1,3.3-11.6c-0.8,0-1.6,0.1-2.6,0.1C103.4,467.9,42.7,459.8,4.5,435.1
	L4.5,435.1z"/>
<path id="manga-esquerda" class="st2" d="M156.1,386.5c0,0-1.3,10.8-13.9,24.1c-1.1,2-1.8,4.1-2.2,6.3c-1.3,5.5-2.5,13.6-5,23.5
	c-1,4-2.3,8-3.8,12l0,0c-3.5,9.4-7.3,16.6-8.5,19.8c-1.3,2.6-9.1,4-29.4,1.8s-63.9-9.4-87.7-30.8c-5.6-4.9-6-11.3-1.3-26.1
	s13.8-90.2,15-110.9c0.2-2.6,0.3-5.5,0.5-8.5c0.5-8.9,1.1-19.1,2.1-29.1c1.3-13,3.2-25.6,6.2-34.1c6.1-17.1,9.9-36.4,30-59.8
	c9.9-12.4,16.2-19.7,22.3-21.2s16-5.9,20.4-8.2C111.7,155.2,164.6,313.8,156.1,386.5z"/>
<path class="st1" d="M110.1,476c-5.6-0.1-11.2-0.4-16.7-1c-18.3-2-63.7-9-88.3-31c-5.9-5.2-6.3-12-1.6-27
	c4.5-14.3,13.7-89.9,14.9-110.7l0.5-8.5c0.5-8.8,1.1-19.1,2.1-29.2c1.5-15.6,3.6-26.8,6.2-34.3c1-2.9,2-5.8,3-8.9
	c4.8-14.9,10.3-31.7,27.1-51.2c9.5-12,16.2-19.9,22.8-21.5c5.8-1.4,15.5-5.7,20.2-8.1l0.6-0.3l0.5,0.4
	c11.4,10.2,64.1,169,55.6,241.9c0,0.5-1.5,11.2-14.1,24.6c-1,1.8-1.6,3.8-2,5.9c-0.5,2-0.9,4.3-1.4,7c-0.9,4.6-2,10.2-3.6,16.5
	c-1.1,4.1-2.3,8.1-3.8,12l-0.2,0.6c-2.1,5.5-4.3,10.3-5.9,13.9c-1.1,2.3-1.9,4.1-2.3,5.4C122.5,474.9,118.1,476,110.1,476z
	 M100.6,146.5c-5,2.5-14.3,6.6-20,7.9c-6,1.4-12.5,9.2-21.8,20.9c-16.6,19.3-22,35.9-26.8,50.6c-1,3.1-2,6-3,9
	c-2.6,7.3-4.6,18.4-6.1,33.9c-1,10-1.6,20.3-2.1,29.1l-0.5,8.5c-1.3,21.4-10.4,96.3-15,111.1c-4.5,14.4-4.3,20.5,1.1,25.1
	c24.2,21.7,69.1,28.6,87.2,30.6c5.5,0.6,11,1,16.5,1.1c10,0,11.7-1.8,12-2.4c0.4-1.2,1.3-3.1,2.4-5.4c1.7-3.6,4-8.6,6.1-14.4
	l0.2-0.6c1.4-3.7,2.5-7.4,3.5-11.3c1.6-6.2,2.7-11.9,3.5-16.4c0.5-2.7,1-5,1.4-7c0.7-3.3,1.4-5.3,2.3-6.6
	c12.3-13.1,13.7-23.6,13.7-23.7c4.9-41.7-10.7-108-20.4-143.8C121.8,194.4,106.3,153,100.6,146.5L100.6,146.5z"/>
<path id="corpo" class="st3" d="M673.2,243.8c-9.5,27-21.2,98.1-24.4,119.3c-2.3,15.7-8.7,61-14.2,93.2c-1.9,11.4-3.8,21.2-5.3,27.4
	c-1.5,6-2.8,11.6-4.2,17.1c-4,16.4-7.3,30.7-10.2,44.1c-3,15.1-5,30.5-5.7,45.9c-0.2,5.4,0,9.5,0.6,11.1c2.2,5.3-4.6,26.5-4.9,36.1
	c0,0.5,0,1-0.1,1.6c-0.3,8.7-1.6,15-0.7,26.5c2,6.7,4.9,27.4,7.1,47.1c2,17.3,3.5,33.8,3.4,39.4c0.5,5.1,2.9,7.8,2.7,23.9
	c1.2,4.5,2.6,9,3.6,13.8c2,7.9,2.2,16.2,0.8,24.2c2.3,30,4,79.6,4.5,104.9c0.1,6.1,0.1,10.7,0.1,13.4c-0.2,13.7-3.7,15.5-10.2,18.9
	s-32.5,14.5-70.2,22.2c-37.7,7.7-110,9.1-166.3,10.2s-125.8-10.6-161.2-16.5s-50.8-24.9-53.4-31.1c-1.7-4.2-2.1-12-1.5-22.5
	c0.3-5.1,0.8-10.8,1.5-17c2.2-19,11.7-135.7,14.6-157.9s6.8-55,4.5-63.6c-0.7-2.8-0.9-5.7-0.8-8.5c0.2-7.2,2.3-14.6,4.1-17.6
	c2.6-4.2,0.3-6.3-0.1-8c-3-9.1-2.3-21.6-0.2-26.8l0,0c0.2-0.5,0.5-1.1,0.8-1.5c1.3-6.5,0.9-24.7-1.4-36.5c-2.1-11.4-12-48.9-16-68.5
	c-0.2-0.8-0.3-1.5-0.5-2.3c-1.5-7.8-4.3-19-6.9-31.3c-3.8-17.5-7.5-37-7.3-51.2c-1.1-35.5-4.8-50.5-10.6-79.7s-43.5-159.4-49.7-174
	s-4.8-19.4,0-21.6s54.8-27.8,88.5-45.3s77.9-43.9,77.9-43.9s246.5-4.5,257.7,2.8c40.7,25.1,100.2,46.5,129.4,55.3
	s58.9,19.4,62.5,27.1C716.7,162.3,682.7,216.7,673.2,243.8z"/>
<path class="st1" d="M372.1,985c-53.7,0-117.3-10.5-151.5-16.2l-2.3-0.4c-36-5.9-51.5-25.3-54.1-31.6c-1.7-4.1-2.2-11.6-1.6-22.9
	c0.3-4.9,0.8-10.5,1.5-17.1c0.9-8,3.1-33.1,5.7-62.1c3.4-38.9,7.3-83.1,9-95.9c1.8-13.3,7.1-53.7,4.5-63.3c-0.7-2.9-1-5.8-0.8-8.8
	c0.2-7.3,2.3-14.9,4.2-18c1.8-2.9,1-4.5,0.3-6c-0.2-0.4-0.4-0.9-0.5-1.3c-3-8.8-2.5-21.4-0.2-27.2v-0.7h0.3c0.2-0.3,0.3-0.7,0.6-1
	c1.2-6.3,0.8-24-1.4-36c-1-5.5-3.9-17.3-7-29.8c-3.3-13.3-7-28.5-9-38.6l-0.5-2.3c-0.9-4.7-2.3-10.6-3.8-17.5c-1-4.3-2-9-3.1-13.8
	c-3.5-16.2-7.6-36.7-7.3-51.4c-1-32-4-47-9-71.7l-1.6-7.8c-5.8-28.9-43.6-159.5-49.7-173.9c-5.8-13.6-5.6-19.9,0.5-22.8
	c4.6-2.1,54.1-27.4,88.4-45.3C216.9,84.5,261,58.3,261.5,58l0.2-0.1h0.2c0.8,0,75.9-1.4,144.3-1.4c107.3,0,112.3,3.3,113.9,4.3
	c41,25.3,100.5,46.6,129.2,55.2c38.7,11.6,59.9,20.9,63.1,27.5c3.5,12.5-9.8,39.6-22.7,65.9c-6.4,13.1-12.5,25.4-15.7,34.6
	c-9.3,26.5-20.7,95-24.3,119.1c-0.5,3.5-1.3,8.6-2.1,14.6c-3.1,21.4-7.8,53.6-12,78.6c-2.1,12.5-3.9,21.8-5.3,27.5
	c-1.5,6-2.8,11.6-4.2,17.1c-4.2,17.3-7.4,31.3-10.2,44.1c-3,15.1-4.9,30.4-5.7,45.8c-0.3,7.5,0.2,9.9,0.5,10.7
	c1.4,3.3-0.4,11.7-2.2,20.5c-1.2,5.9-2.5,12.1-2.6,16c0,0.6,0,1.1-0.1,1.6c-0.1,2.6-0.3,5-0.5,7.4c-0.6,6.3-0.7,12.6-0.2,18.9
	c2.1,7.3,5,29.1,7.1,47.2c2.2,18.8,3.5,34.3,3.4,39.5c0.2,1.4,0.4,2.8,0.8,4.1c0.9,3.5,2,8.3,1.9,19.6c0.4,1.5,0.8,3.1,1.3,4.6
	c0.8,2.9,1.7,6,2.4,9.1c2,8,2.3,16.4,0.8,24.5c2.4,31,4,80.7,4.5,104.8c0.1,6.3,0.1,10.8,0.1,13.4c-0.2,14.3-4.2,16.3-10.7,19.7
	c-7,3.6-33.2,14.7-70.4,22.3c-38,7.7-112.3,9.2-166.5,10.2C377.2,985,374.7,985,372.1,985z M187.9,615.1c-1.9,5-2.6,17,0.3,26
	c0.1,0.3,0.2,0.7,0.4,1c0.7,1.6,1.9,4-0.4,7.7c-1.7,2.8-3.7,10.2-4,17.2c-0.1,2.8,0.1,5.6,0.8,8.3c1.8,6.6,0.3,27.6-4.5,64
	c-1.7,12.8-5.5,56.9-9,95.8c-2.5,29-4.7,54-5.7,62.1c-0.8,6.5-1.3,12.1-1.5,17c-0.6,10.8-0.1,18.2,1.5,22.1
	c2.5,6.1,17.5,24.7,52.7,30.5l2.3,0.4c35.8,5.9,103.8,17,158.8,16c54.1-1.1,128.3-2.5,166.2-10.2c37-7.5,63-18.5,70-22.1
	c6.4-3.3,9.6-5,9.7-18.1c0-2.6,0-7.1-0.1-13.4c-0.5-24.1-2.1-73.9-4.5-104.8v-0.1v-0.1c1.5-7.9,1.2-16.1-0.7-23.9
	c-0.7-3.1-1.5-6.1-2.3-9c-0.5-1.6-0.9-3.2-1.3-4.8v-0.1v-0.1c0.2-11.2-1-15.8-1.8-19.3c-0.4-1.5-0.7-3-0.9-4.5
	c0.1-5.3-1.2-20.7-3.4-39.4c-2-17.2-5-39.8-7.1-47V666c-0.5-6.4-0.4-12.9,0.2-19.3c0.2-2.3,0.4-4.7,0.5-7.3c0-0.5,0-1,0.1-1.5
	c0.1-4.2,1.4-10.4,2.7-16.4c1.6-7.8,3.5-16.5,2.3-19.4c-0.7-1.7-0.9-5.5-0.7-11.5c0.8-15.5,2.7-30.9,5.7-46.1
	c2.8-12.8,6-26.8,10.2-44.1c1.3-5.5,2.7-11.1,4.2-17.1c1.4-5.7,3.2-14.9,5.3-27.4c4.3-25,8.9-57.2,12-78.6c0.9-6,1.6-11.1,2.1-14.6
	c3.6-24.2,15.1-92.9,24.4-119.5c3.3-9.3,9.3-21.7,15.8-34.8c12-24.6,25.8-52.7,22.5-64.4c-2.8-5.9-24.8-15.3-61.9-26.4
	c-28.8-8.6-88.4-30-129.6-55.4c-2.8-1.9-24.7-4-113-4c-66.4,0-139.3,1.3-144,1.4c-3.3,2-45.6,27-77.7,43.8
	c-34.4,17.9-83.8,43.2-88.5,45.3c-3.3,1.5-6.3,4.5,0.5,20.4c6.1,14.4,44,145.3,49.8,174.2l1.6,7.8c5,24.8,8,39.8,9,72
	c-0.2,14.6,3.8,34.9,7.3,51c1,4.8,2.1,9.4,3.1,13.7c1.6,6.9,2.9,12.8,3.9,17.5l0.5,2.3c2.1,10.1,5.8,25.2,9,38.5
	c3.1,12.5,6,24.4,7,29.9c2.3,12.3,2.6,30.6,1.3,36.9l-0.2,0.4c-0.3,0.4-0.5,0.9-0.7,1.3L187.9,615.1z"/>
<path class="st4" d="M488.6,67.2c-15.7-5.8-53.4-7.1-98-7.3s-76.2-4.2-102,4.4c0,0,0.9-5.9,2.4-14.2c2.6-14.1,7.1-35,11.8-44.3
	c2.9-4.6,5.6-5,10.2-4.9c7.3,0.4,79.1,2.5,106.4,1.4s50.3-2.7,53.5,0.3s9.7,21.1,12.1,27c1.2,3,2.1,12.8,2.7,21.6
	C488.3,59.6,488.6,67.2,488.6,67.2z"/>
<path class="st4" d="M489.5,68.5l-1.3-0.5c-16.4-6.1-58.6-7.1-97.7-7.3c-11.3,0-21.6-0.3-31.5-0.6c-9-0.3-17.6-0.5-25.5-0.5
	c-14,0-30.3,0.7-44.7,5.4l-1.4,0.5l0.2-1.5c0-0.1,0.9-6,2.5-14.2c2.8-15.2,7.2-35.3,11.9-44.6c3.2-5,6.2-5.5,11.1-5.4
	c5.4,0.3,52.5,1.7,85.2,1.7c8.9,0,16-0.1,21.1-0.3l12.3-0.5C442.6,0.4,452,0,459.3,0c8.6,0,12.9,0.6,14.4,1.9
	c2.6,2.3,6.4,11.9,10.4,22.4c0.8,2,1.4,3.7,1.9,4.9c1,2.6,2,9.9,2.7,21.9c0.5,8.4,0.8,16,0.8,16.1L489.5,68.5z M333.5,57.9
	c8,0,16.5,0.2,25.6,0.5c9.9,0.3,20.2,0.6,31.5,0.6c40.2,0.2,79.6,1.1,97,6.9c-0.1-2.6-0.3-8.4-0.8-14.7c-1-14.7-1.9-19.7-2.6-21.3
	c-0.5-1.2-1.2-2.9-1.9-5c-2.8-7.3-7.5-19.5-9.9-21.7c-0.7-0.7-3.6-1.5-13.2-1.5c-7.2,0-16.6,0.4-27.5,0.9l-12.3,0.5
	c-5.2,0.2-12.3,0.3-21.2,0.3c-32.7,0-79.9-1.4-85.2-1.7h-1.2c-3.7,0-5.8,0.6-8.3,4.5c-4.5,9-8.9,28.9-11.7,44
	c-1.1,5.8-1.8,10.4-2.2,12.7C304,58.5,319.9,57.9,333.5,57.9L333.5,57.9z"/>
<path class="st5" d="M384.4,233.2c0,0-13.4-76.9-37.9-87.1c-17-22.2-55.2-29.1-57.9-44.2s-4.6-40.9-4.4-45.1s56.3-5.6,73.8-4.9
	c17.5,0.7,110.9,3.2,118.4,4.9s16.6,6.1,20.2,11.9s-8,56.5-23.4,65.1C445.8,134.4,406.1,177.4,384.4,233.2z"/>
<path class="st1" d="M384.1,236.5l-0.6-3.2c-0.1-0.8-13.6-76.5-37.3-86.4l-0.2-0.1l-0.1-0.2c-8.3-10.8-21.8-18-33.6-24.3
	c-12.3-6.6-23-12.2-24.4-20.3c-2.7-15.4-4.6-41.1-4.4-45.3c0.1-1.2,0.2-3.2,23.5-4.7c13.9-0.9,29.7-1.2,39.9-1.2
	c4.6,0,8.5,0.1,11.3,0.2c4.5,0.2,14,0.5,26,0.9c34.6,1.1,86.9,2.8,92.6,4c7.5,1.6,16.9,6.1,20.8,12.3c2,3.1,0.1,15.2-2.7,25.8
	c-4.2,16.3-11.9,35.4-21.1,40.5l-0.2,0.1h-0.2c-27.7,0.6-67.2,45-88.1,98.8L384.1,236.5z M347.1,145.3c22,9.6,34.8,69.9,37.6,84.6
	c21.7-53.9,60.1-96.2,88.4-97c8.5-5,15.9-23.5,20-39.3c3.4-13.3,4-22.5,2.9-24.4c-3.6-5.8-12.7-10.1-19.7-11.5
	c-5.5-1.2-59.8-2.9-92.3-4c-12-0.4-21.5-0.7-26-0.9c-2.8-0.1-6.7-0.2-11.3-0.2c-26.7,0-59.2,1.9-61.6,4.3c-0.2,4.4,1.8,30,4.4,44.7
	c1.3,7.2,11.6,12.7,23.5,19S338.6,134.3,347.1,145.3L347.1,145.3z"/>
<path class="st4" d="M488.6,67.2c-15.7-5.8-53.4-7.1-98-7.3s-76.2-4.2-102,4.4c0,0,0.9-5.9,2.4-14.2c8-2.2,23.2-4.5,51.3-3.8
	c51.2,1.3,92.1,0.9,107.5,1.7c11.7,0.6,27.3,1,37.9,3.1C488.3,59.6,488.6,67.2,488.6,67.2z"/>
<path class="st4" d="M489.5,68.5l-1.3-0.5c-16.4-6.1-58.6-7.1-97.7-7.3c-11.3,0-21.6-0.3-31.5-0.6c-9-0.3-17.6-0.5-25.5-0.5
	c-14,0-30.3,0.7-44.7,5.4l-1.4,0.5l0.2-1.5c0-0.1,0.9-6,2.5-14.2l0.1-0.6l0.5-0.2c6.5-1.8,19-3.9,41.5-3.9c3.2,0,6.6,0,10.1,0.1
	c27.7,0.7,52,0.9,71.6,1.1c16.1,0.1,28.8,0.3,35.9,0.6l4.7,0.2c10.7,0.5,24,1.1,33.4,2.9l0.7,0.1v0.7c0.5,8.4,0.8,16,0.8,16.1
	L489.5,68.5z M333.5,57.9c8,0,16.5,0.2,25.6,0.5c9.9,0.3,20.2,0.6,31.5,0.6c40.2,0.2,79.6,1.1,97,6.9c-0.1-2.5-0.3-8-0.7-14
	c-9.2-1.7-22.1-2.3-32.5-2.8l-4.7-0.2c-7-0.3-19.7-0.4-35.8-0.6c-19.6-0.2-43.9-0.4-71.6-1.1c-3.5-0.1-6.8-0.1-10-0.1
	c-21.6,0-33.9,2-40.5,3.7c-1,5.5-1.8,9.9-2.1,12.1C304,58.5,319.9,57.9,333.5,57.9L333.5,57.9z"/>
<path class="st4" d="M367.3,301.9c-4.4-39-12-77.6-22.9-115.3c-11.9-42.4-14.6-56.2-14.9-57s21.6-1.8,22.9-1.3s4.9,6.1,12.4,19.3
	c6.6,11.5,20.5,59,25.9,81.8C388.4,243,367.3,301.9,367.3,301.9z"/>
<path class="st4" d="M366.8,306l-0.4-4.1c0-0.5-5.6-56.2-22.9-115.1c-4.8-16.9-11.2-40.3-14.7-56.1c-0.1-0.5-0.2-0.8-0.2-0.9
	l-0.1-0.4l0.3-0.4c1.1-1.5,20.8-1.8,21-1.8c1-0.1,1.9,0,2.9,0.2c1.4,0.5,3.6,3.5,12.9,19.7c6.8,11.8,20.7,59.8,26,82.1l0,0.2v0.2
	c-2.4,13.6-22.7,70.3-23.5,72.7L366.8,306z M330.7,130.2c0,0.1,0,0.1,0,0.2c3.5,15.7,9.9,39.1,14.6,56c14.7,50,20.9,97.7,22.5,111.5
	c4.6-13.1,19.9-56.7,22.1-68.5c-5.3-21.6-19.3-69.9-25.8-81.4c-3.4-5.9-10.5-18.2-12-18.9l0,0c-0.8-0.1-1.5-0.1-2.3-0.1
	C343.4,129.1,337,129.5,330.7,130.2z"/>
<path class="st4" d="M267.6,172.7c0,0-4.8,2.5-6.8-2.8s-10.4-47.8-12.3-72.6s2.3-32.8,13.4-41.2s15.1-18,23.1-30.5
	s15.6-21.1,21.6-23.6c-3.9,7.6-8.5,30.3-9.6,42.4s6.6,36.4,14.9,56.2s14.4,27.5,21.1,28.5c1.6-0.1-2.8,5.9-8.1,10
	S290.8,162.4,267.6,172.7z"/>
<path class="st4" d="M265.1,174.2c-1.4,0-3.9-0.5-5.1-4c-2-5.4-10.4-47.7-12.3-72.9c-1.9-25.6,2.7-33.6,13.7-42
	c8.4-6.4,12.6-13.3,17.9-22.1c1.6-2.6,3.2-5.3,5-8.2c6-9.3,14.7-20.9,22-24l2.3-1l-1.1,2.2c-3.7,7.2-8.4,29.5-9.5,42
	s7.3,37.8,14.8,55.7c7.8,18.6,13.9,26.9,20.4,27.9l0,0c0.5,0,0.9,0.3,1,0.8c0.6,1.8-4.7,7.8-8.6,10.9c-5.5,4.4-34.3,23.5-57.5,33.8
	C267,173.8,266.1,174.1,265.1,174.2z M304.8,4c-5.2,3.3-11.6,10.8-18.9,22.1c-1.8,2.8-3.5,5.5-5,8.1c-5.2,8.6-9.7,16-18.3,22.6
	c-10.7,8.1-14.8,15.5-13,40.4c1.8,24.5,10.3,67.2,12.2,72.4c0.7,1.9,1.8,2.8,3.4,2.8c0.7,0,1.4-0.2,2.1-0.5
	c23.2-10.3,52.3-29.8,57.2-33.6c3.1-2.4,5.7-5.3,7.8-8.5c-7-1.5-13.2-10-21.1-28.9C303.5,82.7,295,57,296.1,44.3
	C297.1,33.6,301,13.5,304.8,4z"/>
<path class="st4" d="M361.7,306.6c-0.3,1.8,0.9,3.4,2.7,3.7c0,0,0.1,0,0.1,0c8.9,1,32.7,3.7,35.2,4.2c3.1,0.5,4.4-0.4,4.9-9.1
	s8.8-49,14.4-70.2s18.8-75.9,37.5-96.1c-6.2-2.4-20.8-14.6-32-1.4c-6.5,7.6-15.5,23.9-24.5,38.9
	C394.5,185.9,371.7,243.2,361.7,306.6z"/>
<path class="st4" d="M401,315.5L401,315.5c-0.5,0-0.9-0.1-1.4-0.1c-2.5-0.5-27.6-3.3-35.2-4.2c-2.3-0.3-3.9-2.3-3.7-4.6
	c0-0.1,0-0.1,0-0.2c9.9-62.8,32.7-120.6,38.5-130.5c2.1-3.4,4.1-6.9,6.2-10.4c6.9-11.6,13.3-22.6,18.4-28.6
	c3.6-4.2,7.9-6.3,12.8-6.3c6,0,11.8,3.1,16.1,5.4c1.3,0.7,2.7,1.4,4.1,2l1.3,0.5l-0.9,1c-17,18.5-29.6,66.8-35.7,90l-1.5,5.8
	c-5.5,20.6-13.9,61.2-14.4,70C405.2,312.1,404.4,315.5,401,315.5z M436.7,132.5c-4.4,0-8.2,1.9-11.4,5.7c-5,5.8-11.4,16.8-18.2,28.3
	c-2,3.5-4.1,7-6.2,10.4c-5.8,9.7-28.5,67.2-38.3,129.7c-0.2,1.3,0.7,2.5,1.9,2.7c0,0,0,0,0.1,0c9.8,1.1,32.7,3.8,35.3,4.2
	c0.3,0.1,0.7,0.1,1.1,0.1l0,0c1.3,0,2.3-0.6,2.8-8.4c0.5-8.9,8.9-49.7,14.5-70.4c0.5-1.7,1-3.7,1.5-5.8c6-23,18.5-70.4,35.3-89.8
	c-0.9-0.4-2-1-3.1-1.6C447.9,135.6,442.3,132.5,436.7,132.5L436.7,132.5z"/>
<path class="st4" d="M524.1,61c-10.3-5.4-21.7-20.8-26.7-28c-4.8-6.8-16.4-23.5-18.6-26.3c-2.2-2.7-5.4-4.5-8.8-5.1
	c1.7,3.9,12.9,37.9,5.3,75c-6.8,33.3-15.7,48.3-24.3,58.1c-1.6,1.8-1.5,4.5,0.3,6.2c18.3,16.6,40.1,28.7,63.8,35.5
	c4.3,0.9,7.1-1,9.6-7.9s13-38.4,12.8-73C537,74,534.5,66.4,524.1,61z"/>
<path class="st4" d="M517,177.4L517,177.4c-0.7,0-1.3-0.1-2-0.2c-23.9-6.8-45.9-19.1-64.3-35.8c-2.1-2-2.3-5.3-0.4-7.4
	c7.5-8.4,17-22.6,24.1-57.7c7.1-34.8-2.5-68-5.3-74.4l-0.6-1.5l1.6,0.2c3.7,0.6,7.1,2.6,9.4,5.5c1.4,1.8,6.4,9,11.3,15.9
	c2.8,4,5.6,8,7.4,10.5c4.5,6.6,16,22.4,26.4,27.8s13.4,13,13.9,35.1c0.2,36.8-11.5,69.7-12.8,73.3
	C523.4,174.8,520.8,177.4,517,177.4z M471.5,2.8c3.4,9.3,11.5,41,4.7,73.9c-7.2,35.4-16.9,49.9-24.5,58.5c-1.3,1.4-1.2,3.6,0.2,4.9
	c18.2,16.5,39.9,28.6,63.5,35.3c0.5,0.1,1,0.2,1.6,0.2c2.2,0,4.5-0.9,7-7.5c1.3-3.6,12.9-36.2,12.7-72.7
	c-0.5-21.6-3.2-28.5-12.9-33.6c-10.7-5.6-22.5-21.7-27-28.3c-1.9-2.4-4.6-6.4-7.5-10.4c-4.8-6.9-9.9-14-11.2-15.8
	C476.4,5.1,474.1,3.6,471.5,2.8z"/>
<path class="st6" d="M377.5,218.9c0.3,4.4-3,8.1-7.3,8.4c-4.4,0.3-8.1-3-8.4-7.3c-0.3-4.4,3-8.1,7.3-8.4c0.2,0,0.4,0,0.6,0
	C373.8,211.4,377.3,214.7,377.5,218.9z"/>
<path class="st7" d="M369.6,227.1c-4.6-0.3-8-4.2-7.8-8.8c0.3-4.6,4.2-8,8.8-7.8c4.4,0.3,7.8,3.9,7.8,8.3
	C378.2,223.6,374.3,227.3,369.6,227.1z M369.6,212.4c-3.6,0.3-6.2,3.4-5.9,7c0.3,3.6,3.4,6.2,7,5.9c3.4-0.3,5.9-3.1,5.9-6.4
	C376.4,215.2,373.3,212.3,369.6,212.4L369.6,212.4z"/>
<path class="st6" d="M349.7,154.9c-1.7,2.1-5.9,1.4-9.3-1.4s-4.9-6.8-3.2-8.9s5.9-1.4,9.3,1.4S351.4,152.9,349.7,154.9z"/>
<path class="st7" d="M346.7,157.1c-2.6-0.1-5-1.1-6.9-2.8c-1.7-1.3-3-3.1-3.8-5.1c-0.7-1.6-0.6-3.5,0.5-5c2-2.4,6.9-1.8,10.6,1.3
	c1.7,1.3,3,3.1,3.8,5.1c0.7,1.6,0.6,3.5-0.5,5C349.4,156.6,348.1,157.1,346.7,157.1z M340.1,144.3c-0.9-0.1-1.7,0.3-2.3,0.9
	c-0.6,1-0.7,2.2-0.2,3.3c0.7,1.7,1.8,3.2,3.3,4.3c1.6,1.4,3.6,2.3,5.8,2.4c0.9,0.1,1.7-0.3,2.3-0.9c0.6-1,0.7-2.2,0.2-3.3
	c-0.7-1.7-1.8-3.2-3.3-4.3C344.3,145.3,342.3,144.5,340.1,144.3L340.1,144.3z"/>
<path class="st8" d="M626.4,932.7c-0.2,13.7-3.7,15.5-10.2,18.9s-32.5,14.5-70.2,22.2s-110,9.1-166.3,10.2s-125.8-10.6-161.2-16.5
	s-50.8-24.9-53.4-31.1c-1.7-4.2-2.1-12-1.5-22.5c17.4,10.5,69.3,34.4,190.1,36.4c148.7,2.4,223.7-11.7,272.6-31.1
	C626.4,925.3,626.4,930,626.4,932.7z"/>
<path class="st1" d="M372.1,985c-53.7,0-117.3-10.5-151.5-16.2l-2.3-0.4c-36-5.9-51.5-25.3-54.1-31.6c-1.7-4.1-2.2-11.6-1.6-22.9
	l0.1-1.5l1.3,0.8c17,10.2,69.5,34.3,189.7,36.2c11.1,0.2,22,0.3,32.4,0.3c109.8,0,186.1-10,239.8-31.3l1.2-0.5v1.3
	c0.1,6.3,0.1,10.8,0.1,13.4c-0.2,14.3-4.2,16.3-10.7,19.7c-7,3.6-33.2,14.7-70.4,22.3c-38,7.7-112.3,9.2-166.5,10.2
	C377.2,985,374.7,985,372.1,985z M164.4,915.6c-0.5,10,0,16.9,1.5,20.6c2.5,6.1,17.5,24.7,52.7,30.5l2.3,0.4
	c35.7,5.9,103.7,17.1,158.7,16.1c54.1-1.1,128.3-2.5,166.2-10.2c37-7.5,63-18.5,70-22.1c6.4-3.3,9.6-5,9.7-18.1
	c0-2.4,0-6.5-0.1-12.1c-53.9,21.1-130,31-239.3,31c-10.5,0-21.4-0.1-32.4-0.3C236,949.4,182.8,926.3,164.4,915.6z"/>
</svg>
