<svg xmlns="http://www.w3.org/2000/svg" xmlns:xlink="http://www.w3.org/1999/xlink" viewBox="0 0 843.98 886.82"><defs><style>.cls-1{fill:url(#radial-gradient);}.cls-2{fill:url(#radial-gradient-2);}.cls-12,.cls-25,.cls-3,.cls-7{mix-blend-mode:screen;}.cls-3{fill:url(#radial-gradient-3);}.cls-4{isolation:isolate;}.cls-5{fill:url(#linear-gradient);}.cls-6{mask:url(#mask);}.cls-12,.cls-7{opacity:0.8;}.cls-7{fill:url(#linear-gradient-2);}.cls-13,.cls-14,.cls-8,.cls-9{opacity:0.2;}.cls-13,.cls-14,.cls-16,.cls-17,.cls-18,.cls-19,.cls-20,.cls-21,.cls-23,.cls-26,.cls-8,.cls-9{mix-blend-mode:multiply;}.cls-8{fill:url(#linear-gradient-3);}.cls-9{fill:url(#linear-gradient-4);}.cls-10{fill:url(#linear-gradient-5);}.cls-11{mask:url(#mask-2);}.cls-12{fill:url(#linear-gradient-6);}.cls-13{fill:url(#linear-gradient-7);}.cls-14{fill:url(#linear-gradient-8);}.cls-15{fill:url(#linear-gradient-9);}.cls-16{fill:url(#linear-gradient-10);}.cls-17,.cls-18,.cls-19{opacity:0.4;}.cls-17{fill:url(#linear-gradient-11);}.cls-18{fill:url(#linear-gradient-12);}.cls-19{fill:url(#linear-gradient-13);}.cls-20,.cls-21{opacity:0.6;}.cls-20{fill:url(#linear-gradient-14);}.cls-21{fill:url(#linear-gradient-15);}.cls-22{fill:url(#linear-gradient-16);}.cls-23{fill:url(#radial-gradient-4);}.cls-24{mask:url(#mask-3);}.cls-25{opacity:0.5;fill:url(#linear-gradient-17);}.cls-26{fill:#bfbfbf;opacity:0.3;}.cls-27{fill:#c1c1c1;}</style><radialGradient id="radial-gradient" cx="516.93" cy="1516.27" fy="1502.9773187042463" r="21.57" gradientUnits="userSpaceOnUse"><stop offset="0.4" stop-color="#fff"/><stop offset="1"/></radialGradient><radialGradient id="radial-gradient-2" cx="-31.04" cy="1516.27" fy="1502.9773470722462" r="21.57" gradientTransform="matrix(-1, 0, 0, 1, 588.63, 0)" xlink:href="#radial-gradient"/><radialGradient id="radial-gradient-3" cx="568.68" cy="1504.82" r="39.3" gradientUnits="userSpaceOnUse"><stop offset="0.52" stop-color="#fff"/><stop offset="0.96"/></radialGradient><linearGradient id="linear-gradient" x1="57.39" y1="340.84" x2="509.34" y2="316.88" gradientUnits="userSpaceOnUse"><stop offset="0.19" stop-color="#eaeaea"/><stop offset="0.59" stop-color="#d4d4d4"/><stop offset="1" stop-color="#bfbfbf"/></linearGradient><mask id="mask" x="6" y="90.66" width="405.12" height="1359.07" maskUnits="userSpaceOnUse"><g transform="translate(-118.02 -87.52)"><path class="cls-1" d="M507.56,1532s10.91-21.82,13.07-25.73,5.08-9.16,6.66-9.41.92,1,1,3.83,1.75,15.49.17,17.32-3.33,0-4-2.08-1.41-2.59-1.08.5,1.5,6.24-1.25,8.82-6.16,10.49-6.91,11.74S509.64,1535.21,507.56,1532Z"/></g></mask><linearGradient id="linear-gradient-2" x1="186.04" y1="300.71" x2="258.8" y2="340.94" gradientUnits="userSpaceOnUse"><stop offset="0" stop-color="#969696"/><stop offset="0.15" stop-color="#fff"/><stop offset="0.34" stop-color="#fff"/><stop offset="0.99" stop-color="#969696"/></linearGradient><linearGradient id="linear-gradient-3" x1="96.64" y1="311.45" x2="307.77" y2="334.28" gradientUnits="userSpaceOnUse"><stop offset="0.42" stop-color="#fff"/><stop offset="0.8" stop-color="#d4d4d4"/><stop offset="1" stop-color="#bfbfbf"/></linearGradient><linearGradient id="linear-gradient-4" x1="96.56" y1="312.22" x2="307.7" y2="335.04" xlink:href="#linear-gradient-3"/><linearGradient id="linear-gradient-5" x1="-434.45" y1="340.84" x2="17.51" y2="316.88" gradientTransform="matrix(-1, 0, 0, 1, 588.63, 0)" xlink:href="#linear-gradient"/><mask id="mask-2" x="489.43" y="90.66" width="349" height="1359.07" maskUnits="userSpaceOnUse"><g transform="translate(-118.02 -87.52)"><path class="cls-2" d="M629,1532s-10.91-21.82-13.07-25.73-5.08-9.16-6.66-9.41-.92,1-1,3.83-1.75,15.49-.17,17.32,3.33,0,4-2.08,1.41-2.59,1.08.5-1.5,6.24,1.25,8.82,6.16,10.49,6.91,11.74S627,1535.21,629,1532Z"/></g></mask><linearGradient id="linear-gradient-6" x1="-305.79" y1="300.71" x2="-233.04" y2="340.94" gradientTransform="matrix(-1, 0, 0, 1, 588.63, 0)" xlink:href="#linear-gradient-2"/><linearGradient id="linear-gradient-7" x1="-395.2" y1="311.45" x2="-184.06" y2="334.28" gradientTransform="matrix(-1, 0, 0, 1, 588.63, 0)" xlink:href="#linear-gradient-3"/><linearGradient id="linear-gradient-8" x1="-395.28" y1="312.22" x2="-184.13" y2="335.04" gradientTransform="matrix(-1, 0, 0, 1, 588.63, 0)" xlink:href="#linear-gradient-3"/><linearGradient id="linear-gradient-9" x1="527.45" y1="-117.02" x2="551.42" y2="1158.37" gradientUnits="userSpaceOnUse"><stop offset="0" stop-color="#bfbfbf"/><stop offset="0.1" stop-color="#d4d4d4"/><stop offset="0.27" stop-color="#eaeaea"/><stop offset="0.78" stop-color="#eaeaea"/><stop offset="1" stop-color="#d4d4d4"/></linearGradient><linearGradient id="linear-gradient-10" x1="218.18" y1="967.91" x2="855" y2="967.91" gradientUnits="userSpaceOnUse"><stop offset="0" stop-color="#bfbfbf"/><stop offset="0.1" stop-color="#d4d4d4"/><stop offset="0.27" stop-color="#fff"/><stop offset="0.72" stop-color="#fff"/><stop offset="0.91" stop-color="#d4d4d4"/><stop offset="1" stop-color="#bfbfbf"/></linearGradient><linearGradient id="linear-gradient-11" x1="218.17" y1="534.23" x2="855.01" y2="534.23" gradientUnits="userSpaceOnUse"><stop offset="0" stop-color="#bfbfbf"/><stop offset="0.1" stop-color="#d4d4d4"/><stop offset="0.27" stop-color="#fff"/><stop offset="0.72" stop-color="#fff"/><stop offset="0.92" stop-color="#d4d4d4"/><stop offset="1" stop-color="#bfbfbf"/></linearGradient><linearGradient id="linear-gradient-12" x1="186.87" y1="396.43" x2="857.4" y2="396.43" xlink:href="#linear-gradient-11"/><linearGradient id="linear-gradient-13" x1="183.94" y1="534.13" x2="820.76" y2="534.13" gradientUnits="userSpaceOnUse"><stop offset="0" stop-color="#bfbfbf"/><stop offset="0.13" stop-color="#d4d4d4"/><stop offset="0.35" stop-color="#fff"/><stop offset="0.72" stop-color="#fff"/><stop offset="0.91" stop-color="#d4d4d4"/><stop offset="1" stop-color="#bfbfbf"/></linearGradient><linearGradient id="linear-gradient-14" x1="183.93" y1="373.71" x2="820.76" y2="373.71" xlink:href="#linear-gradient-13"/><linearGradient id="linear-gradient-15" x1="183.94" y1="724.02" x2="820.74" y2="724.02" xlink:href="#linear-gradient-13"/><linearGradient id="linear-gradient-16" x1="533.96" y1="188.57" x2="543.38" y2="44.76" xlink:href="#linear-gradient"/><radialGradient id="radial-gradient-4" cx="539.44" cy="35.17" r="134.1" gradientUnits="userSpaceOnUse"><stop offset="0.51" stop-color="#fff"/><stop offset="0.87" stop-color="#d4d4d4"/><stop offset="1" stop-color="#bfbfbf"/></radialGradient><mask id="mask-3" x="191.54" y="53.51" width="470.87" height="1394.56" maskUnits="userSpaceOnUse"><g transform="translate(-118.02 -87.52)"><path class="cls-3" d="M538,1494.16c5.32-2.52,11.33-4.66,16.83,0s16,6.66,25.14,1.17,9.84-3.89,15.33-3.17c11.32,1.5,8.32,27.32,5,21.32S594.49,1501,597,1512c4,17.39-.67,12.33-4.5,6.5s2.17,9.66.84,13.32-9,4.33-19.66,1.5-18.32,4.66-25,1.5-5.33-9.66-2.49-17.16,6-18.48-.5-6.82-7.33,6.32-5-3.34,1.33-9.32-1.67-3S531.37,1497.33,538,1494.16Z"/></g></mask><linearGradient id="linear-gradient-17" x1="544.42" y1="112.25" x2="546.13" y2="447.78" gradientUnits="userSpaceOnUse"><stop offset="0.04" stop-color="#969696"/><stop offset="0.3" stop-color="#fff"/><stop offset="0.43" stop-color="#fff"/><stop offset="0.73" stop-color="#d4d4d4"/><stop offset="0.99" stop-color="#969696"/></linearGradient></defs><g class="cls-4"><g id="Camada_1" data-name="Camada 1"><path class="cls-5" d="M265,164.6s-10,3.12-24.11,23.61-121.12,231.9-121.12,231.9,46.22,66.33,162.63,74l15.84-52.22S292.64,222,265,164.6Z" transform="translate(-118.02 -87.52)"/><g class="cls-6"><path class="cls-7" d="M124,419.22s74.75-149.51,89.59-176.33,34.82-62.78,45.66-64.49,6.28,6.85,6.84,26.25,12,106.15,1.15,118.7-22.83,0-27.4-14.27-9.7-17.69-7.42,3.43S242.7,355.3,223.88,373s-42.23,71.9-47.37,80.46S138.28,441.47,124,419.22Z" transform="translate(-118.02 -87.52)"/></g><path class="cls-8" d="M266,166.88c6.14,30.56,1,63,2.46,93.92,1,20.07,1.51,40.13,4,60.06,1.7,13.55,3.93,28.1-1.2,41.15a2.73,2.73,0,0,1-4.51,1.19c-29.24-25-27.14-67.56-36.06-102.72-7.26,46,8.6,91.78,20.56,136,1.73,6.41,18.91,50,3.13,48.43C246,444,240,435.7,235.14,429.55c-7.64-9.74-14.1-20.5-20.21-31.26-15-26.46-17.42-58.64-33-84.55-5.23,36.85,12.58,74.11,30.89,105.06,7.74,13.07,18.07,25.42,24.9,38.91,3.22,6.39,3.9,12.19-3.48,15.34-13.52,5.77-33-1.9-45.33-7-16.5-6.76-32.46-15.55-48.07-24.26,23.87,20.08,69.1,47.54,141.48,52.33l15.84-52.22S292.77,227.5,266,166.88Z" transform="translate(-118.02 -87.52)"/><path class="cls-9" d="M266.67,168.49c9.8,40.07,12.92,81.49,13.77,122.65.48,23.58.36,47.15.35,70.73,0,8.83,1.57,17.79.53,26.61-.44,3.8-1.61,13.5-5.77,15.13-7.71,3-14.19-13.71-16.62-18.61-10.53-21.25-15.53-43.95-21.43-66.77-2.21-8.54-4.29-17.18-6.08-25.86,2.72,18.73,4.8,37.4,9.76,56,3.7,13.9,7.09,28.75,13.61,41.64,4.64,9.17,10.22,18,14.28,27.41,5,11.62,9.46,50.35-17.52,31.17-24.18-17.17-37.66-39.16-49.69-65.44a265.29,265.29,0,0,1-18.31-55.09c4.53,32.28,15,62.18,33.57,90.11,7.33,11.06,15.67,21.69,25.85,30.25,6.46,5.42,31.61,19.55,19.31,30.24-10.81,9.4-42.81,2.75-55.22.32a277,277,0,0,0,75.3,15.16l15.84-52.22S292.86,231.17,266.67,168.49Z" transform="translate(-118.02 -87.52)"/><path class="cls-10" d="M815.5,164.6s10,3.12,24.11,23.61,121.12,231.9,121.12,231.9-46.22,66.33-162.63,74l-15.84-52.22S787.83,222,815.5,164.6Z" transform="translate(-118.02 -87.52)"/><g class="cls-11"><path class="cls-12" d="M956.45,419.22s-74.76-149.51-89.59-176.33-34.81-62.78-45.65-64.49-6.28,6.85-6.85,26.25-12,106.15-1.14,118.7,22.82,0,27.39-14.27,9.7-17.69,7.41,3.43S837.75,355.3,856.59,373s42.22,71.9,47.36,80.46S942.18,441.47,956.45,419.22Z" transform="translate(-118.02 -87.52)"/></g><path class="cls-13" d="M814.47,166.88c-6.15,30.56-1,63-2.47,93.92-1,20.07-1.51,40.13-4,60.06-1.7,13.55-3.93,28.1,1.2,41.15a2.74,2.74,0,0,0,4.51,1.19c29.24-25,27.14-67.56,36.06-102.72,7.27,46-8.6,91.78-20.56,136-1.73,6.41-18.9,50-3.14,48.43,8.44-.86,14.45-9.16,19.26-15.31,7.65-9.74,14.1-20.5,20.21-31.26,15-26.46,17.41-58.64,33-84.55,5.23,36.85-12.57,74.11-30.89,105.06-7.74,13.07-18.07,25.42-24.9,38.91-3.22,6.39-3.9,12.19,3.49,15.34,13.51,5.77,32.95-1.9,45.32-7,16.51-6.76,32.46-15.55,48.08-24.26-23.88,20.08-69.11,47.54-141.49,52.33l-15.84-52.22S787.69,227.5,814.47,166.88Z" transform="translate(-118.02 -87.52)"/><path class="cls-14" d="M813.79,168.49C804,208.56,800.87,250,800,291.14c-.49,23.58-.37,47.15-.36,70.73,0,8.83-1.57,17.79-.53,26.61.45,3.8,1.61,13.5,5.77,15.13,7.71,3,14.19-13.71,16.62-18.61,10.53-21.25,15.54-43.95,21.44-66.77,2.21-8.54,4.29-17.18,6.06-25.86-2.7,18.73-4.8,37.4-9.75,56-3.7,13.9-7.1,28.75-13.61,41.64-4.64,9.17-10.22,18-14.27,27.41-5,11.62-9.46,50.35,17.51,31.17,24.18-17.17,37.66-39.16,49.69-65.44a265.29,265.29,0,0,0,18.31-55.09c-4.53,32.28-15,62.18-33.57,90.11-7.33,11.06-15.67,21.69-25.85,30.25-6.46,5.42-31.61,19.55-19.31,30.24,10.81,9.4,42.82,2.75,55.22.32a277.09,277.09,0,0,1-75.3,15.16l-15.84-52.22S787.6,231.17,813.79,168.49Z" transform="translate(-118.02 -87.52)"/><path class="cls-15" d="M815.06,163.85,632,88.53s-30.95,24.39-91.73,22.25C479.52,112.92,448,88.53,448,88.53L265,163.85s32,246.52,32,372.06-32,402.3-32,402.3C395.64,971.31,540,971.88,540,971.88s144.37-.57,275-33.67c0,0-32-276.75-32-402.3S815.06,163.85,815.06,163.85Z" transform="translate(-118.02 -87.52)"/><path class="cls-16" d="M587,970.16c11.54-.85,25-2,39.09-3.75a2.54,2.54,0,0,0-2.27-.72C611.55,967.82,599.27,969.25,587,970.16Z" transform="translate(-118.02 -87.52)"/><path class="cls-17" d="M815.06,163.85,662,100.86c-9.6,29-27.16,56.14-50.83,74,.39-.24.79-.46,1.18-.71,12-8,21.27-18.15,31.68-28,14.57-13.74,29.6-21.08,49.9-17.31a111.78,111.78,0,0,1,24.21,7.64,280.11,280.11,0,0,1,37.25,18.13c12.33,7,26.37,15.16,33.05,28.33,9.15,18,8.4,40.92,7.55,60.6-.92,21.51-4,42.67-6.84,64-1.26,9.3-3.39,28.53-17.38,27.48-11.36-.86-17.24-12.7-21.38-22-13.59-30.39-22.52-62.54-33.88-93.74,10.48,38.82,21.73,77.42,32.07,116.26,4,15,8.44,30.13,10,45.68.81,8.32,2.16,20-4.63,26.33-6.27,5.88-17.48-1-22.24-5.53-12.12-11.5-19.8-27.14-27-41.95-13.52-27.72-30.28-53.44-45.36-80.19,27.77,49.25,49.27,109,69.41,161.93,24.16,63.56,35.31,130.57,43.82,197.74,8.9,70.26,34.54,186.33.32,253.31-17,33.2-18.83,29.1-65.05,53.06-20.94,10.87-52.49,16.91-81.73,20.5a3,3,0,0,1,.78,1.18c52.64-4.23,122.18-12.65,188.23-29.38,0,0-32-276.75-32-402.3S815.06,163.85,815.06,163.85Z" transform="translate(-118.02 -87.52)"/><path class="cls-18" d="M809.91,205.67q-4.11,18-7.63,36.06c-3.18,16.2-13.38,132.89-27.1,133.44-8.24.34-17.9-21.05-19.55-26.94,5.47,19.56,10.3,39.41,12.58,59.61,1.73,15.4,6,38.19-1.05,52.91-9.61,20-23.41-13.14-26.85-19.85-5.25-10.22-21.36-39.14-26.54-49.64,10.84,30.49,30.48,70.68,41.94,101,11.31,29.87,19,64.24,28.68,94.92-.82-18.78-1.29-36.13-1.29-51.27C783.1,442.3,800.87,281.45,809.91,205.67Z" transform="translate(-118.02 -87.52)"/><path class="cls-19" d="M345.54,926.4a94.6,94.6,0,0,1-34-56.08C300.62,812.44,324,755.23,337.92,699.87c8.56-34.09,16.17-68.48,26.83-102,10-31.61,39.66-103.33,43.44-136.43-2.27,19.4-35.33,81.36-45.59,98.21-7.37,12.09-24.31,43-42.81,34.76-12.46-5.51-4.25-34-3-43.27,7.77-56.28,25.68-108.51,44.84-162,22.58-63,40-88.74,54.91-135-17.09,24.42-32.18,50.55-46.36,76.64-11.6,21.37-22.86,47.19-45.73,58.68a2.61,2.61,0,0,1-3.78-1.53c-7.12-25.4,5.28-53.54,11.43-78,7.69-30.57,16.82-60.88,22.36-91.93-4.44,24.86-20.08,48.25-29.38,71.44-6.68,16.67-20.81,17.57-24.26.7-24.46-119.76-18.69-122.61,24.61-141.45,27.31-11.87,67.3-39.11,96.48-19.7,13.71,9.11,24.2,22.44,36.16,33.75C440.83,145.67,428.63,123,422,99.23L265,163.85s32,246.52,32,372.06-32,402.3-32,402.3c74.58,18.89,153.6,27.18,207.71,30.83-16-2.83-31.81-6.39-47.41-10.62C398.5,951.15,367.62,944.19,345.54,926.4Z" transform="translate(-118.02 -87.52)"/><path class="cls-20" d="M296.19,572.92c1.43-16.22,3.3-32.39,7.14-48.47,8.63-36.08,25.18-69,39-103.23,4-10,7.88-20.05,11.65-30.15q-2.55,5.63-5.15,11.24c-5.19,11.17-10.56,22.42-17.37,32.72-3.11,4.7-6.79,11.81-11.95,14.7-19.4,10.84-15.54-45.36-15.57-52.59-.1-23.46,3.64-45.45,12.57-67.21,6.09-14.84,13.64-28.95,19.06-43.95q-2.21,3.94-4.34,7.92c-3.74,7-18.85,47.79-32.19,32.57-5.58-6.36-6.33-17.89-7.28-25.79-1.52-12.7-2.11-25.44-2.75-38.19-1.5-30.29-7.48-61.59-22.68-88,6.07,48.55,30.61,251.41,30.61,361.41C296.92,547.13,296.66,559.59,296.19,572.92Z" transform="translate(-118.02 -87.52)"/><path class="cls-21" d="M299.61,936.19c-11.65-15.72-14.83-34.56-14.5-53.76A469.68,469.68,0,0,1,294,798.82c20.74-104.13,69.84-199.13,102.47-299.56-7.17,16.32-15,32.38-23,48.27-12,23.8-24.14,47.49-35.46,71.63-11.48,24.51-34.85,43.15-37.14,2.07-.11-2-2.67-58-3.42-59.92C289.5,692,265,938.21,265,938.21c15.7,4,31.6,7.46,47.42,10.56A59.65,59.65,0,0,1,299.61,936.19Z" transform="translate(-118.02 -87.52)"/><path class="cls-22" d="M632.45,87.52s-15,76.33-92.44,78c-77.47-1.71-92.45-78-92.45-78l-21.82,8.71C446.71,193,540,187.39,540,187.39s93.3,5.57,114.27-91.16Z" transform="translate(-118.02 -87.52)"/><path class="cls-23" d="M632,88.53s-30.95,24.39-91.73,22.25C479.52,112.92,448,88.53,448,88.53l-.19.07c2.14,9.15,20.1,75.37,92.21,77,72.11-1.59,90.06-67.81,92.2-77Z" transform="translate(-118.02 -87.52)"/><g class="cls-24"><path class="cls-25" d="M332.87,160.14c36.43-17.3,77.61-31.95,115.27,0s109.57,45.65,172.33,8,67.39-26.66,105-21.68c77.61,10.27,57.07,187.17,34.24,146.08s-39.94-85.6-22.82-10.27c27.08,119.14-4.57,84.45-30.82,44.51s14.84,66.2,5.71,91.31-61.64,29.67-134.67,10.27-125.55,32-171.2,10.27-36.52-66.2-17.12-117.56,41.09-126.68-3.42-46.79-50.22,43.37-34.24-22.83,9.13-63.9-11.41-20.54S287.22,181.83,332.87,160.14Z" transform="translate(-118.02 -87.52)"/></g><path class="cls-26" d="M425.74,96.23c.91,3.19,1.71,6.43,2.69,9.6s2,6.32,3.3,9.37,2.46,6.15,4,9.09,3.06,5.86,4.68,8.73,3.47,5.61,5.41,8.26l2.95,4,3.2,3.76c1,1.27,2.19,2.45,3.35,3.62s2.24,2.4,3.5,3.46l3.66,3.29,3.85,3.06c2.64,1.95,5.29,3.88,8.11,5.56s5.64,3.35,8.55,4.85,5.91,2.82,9,4.07,6.14,2.31,9.27,3.28a128.92,128.92,0,0,0,19.2,4.29c3.25.48,6.51.82,9.78,1a91,91,0,0,0,9.75.16h.2a93.49,93.49,0,0,0,9.74-.17c3.28-.21,6.54-.56,9.78-1a128.36,128.36,0,0,0,19.2-4.29q4.7-1.47,9.28-3.28c3-1.25,6-2.58,8.95-4.07s5.79-3.07,8.54-4.86a97.58,97.58,0,0,0,8.11-5.55l3.85-3.07,3.66-3.29c1.26-1.06,2.34-2.3,3.51-3.46s2.31-2.34,3.35-3.61l3.19-3.76,3-4c1.93-2.65,3.69-5.45,5.4-8.27s3.32-5.7,4.67-8.72c1.52-2.94,2.76-6,4-9.09s2.18-6.26,3.3-9.38,1.79-6.39,2.7-9.59c-.74,3.23-1.38,6.51-2.2,9.73-1,3.18-1.73,6.45-3,9.55s-2.24,6.29-3.65,9.32-2.85,6-4.39,9a103.88,103.88,0,0,1-25.76,30.66,100.47,100.47,0,0,1-8.19,5.9,94.84,94.84,0,0,1-8.73,5.07c-3,1.56-6.06,2.95-9.16,4.25s-6.28,2.41-9.49,3.44a131,131,0,0,1-19.64,4.56q-5,.76-10,1.13a92.71,92.71,0,0,1-10.17.25h.2a95.46,95.46,0,0,1-10.18-.25q-5-.36-10-1.14a131,131,0,0,1-19.64-4.55q-4.81-1.54-9.49-3.44c-3.11-1.3-6.18-2.69-9.16-4.25a92.61,92.61,0,0,1-8.73-5.07c-2.85-1.79-5.54-3.84-8.19-5.9a103.7,103.7,0,0,1-25.75-30.66c-1.54-3-3.14-5.91-4.4-9-1.42-3-2.54-6.17-3.66-9.32s-1.95-6.38-2.94-9.55C427.11,102.73,426.48,99.47,425.74,96.23Z" transform="translate(-118.02 -87.52)"/><path class="cls-26" d="M632.45,87.52a78,78,0,0,1-2.82,10.9,113.63,113.63,0,0,1-12.78,26.85c-6.74,10.29-16.61,21.48-30.18,29.34a89.77,89.77,0,0,1-22.14,9.18,107.9,107.9,0,0,1-24.48,3.48,107.48,107.48,0,0,1-24.56-3.48,89.77,89.77,0,0,1-22.14-9.18c-13.58-7.85-23.44-19.05-30.19-29.33a113.17,113.17,0,0,1-12.77-26.86,77.35,77.35,0,0,1-2.83-10.9A90.18,90.18,0,0,0,451,98.2a120.87,120.87,0,0,0,13.73,26,99.66,99.66,0,0,0,12.69,14.88,90.4,90.4,0,0,0,17.4,13,86.31,86.31,0,0,0,21.46,8.66,90.95,90.95,0,0,0,47.42,0A86.87,86.87,0,0,0,585.18,152a90,90,0,0,0,17.4-13,99.16,99.16,0,0,0,12.69-14.88A120.87,120.87,0,0,0,629,98.2,91,91,0,0,0,632.45,87.52Z" transform="translate(-118.02 -87.52)"/><path class="cls-27" d="M540,974.34h0c-1.45,0-146.08-1-275.46-33.72a1.71,1.71,0,0,1-1.28-1.85c.32-2.78,31.94-278.1,31.94-402.1,0-19.65-.79-43.55-2.37-71.14L284,494.65a1.73,1.73,0,0,1-1.75,1.21c-115.89-7.67-163.46-74.11-163.92-74.77a1.74,1.74,0,0,1-.13-1.76c4.37-8.63,107.21-211.75,121.24-232.1,14.29-20.74,24.58-24.13,25-24.26L447.34,87.69a1.76,1.76,0,0,1,1.7.23c.3.24,31.84,24,91.19,21.9,2.66.09,5.14.13,7.57.13,54.48,0,82.89-21.8,83.16-22a1.73,1.73,0,0,1,1.71-.24l183,75.33c.29.08,10.58,3.47,24.86,24.21,14,20.35,116.87,223.47,121.25,232.1a1.74,1.74,0,0,1-.13,1.76c-.46.66-48,67.1-163.92,74.77a1.71,1.71,0,0,1-1.75-1.21l-8.83-29.12c-1.58,27.59-2.38,51.49-2.38,71.14,0,124,31.63,399.32,32,402.1a1.71,1.71,0,0,1-1.28,1.85C686.09,973.39,541.46,974.33,540,974.34ZM266.83,937.67C395.25,969.93,538.17,970.91,540,970.92s144.76-1,273.18-33.25c-2.53-22.12-31.8-281.55-31.8-401,0-22,1-49.17,2.94-80.91a1.72,1.72,0,0,1,1.51-1.6,1.75,1.75,0,0,1,1.84,1.21l11.21,37c106.27-7.5,153.63-64.89,159.39-72.41-7.81-15.42-107.11-211.31-120.52-230.76s-23.13-22.92-23.23-23l-182.26-75c-5.35,3.87-36,24-92,22-2.45.09-5,.13-7.44.13-51.37,0-79.89-18.49-85-22.15l-182.14,75c-.22.08-9.86,3.42-23.36,23S129.54,404.52,121.73,419.94c5.77,7.52,53.13,64.91,159.39,72.41l11.22-37a1.75,1.75,0,0,1,1.84-1.21,1.7,1.7,0,0,1,1.5,1.6c2,31.74,2.95,59,2.95,80.91C298.63,656.12,269.35,915.55,266.83,937.67Z" transform="translate(-118.02 -87.52)"/></g></g></svg>